<?xml version="1.0" encoding="UTF-8"?>
<!DOCTYPE svg PUBLIC "-//W3C//DTD SVG 1.1//EN" "http://www.w3.org/Graphics/SVG/1.1/DTD/svg11.dtd">
<!-- Creator: CorelDRAW -->
<svg xmlns="http://www.w3.org/2000/svg" xml:space="preserve" width="250px" height="250px" version="1.1" style="shape-rendering:geometricPrecision; text-rendering:geometricPrecision; image-rendering:optimizeQuality; fill-rule:evenodd; clip-rule:evenodd"
viewBox="0 0 55.69 55.7"
 xmlns:xlink="http://www.w3.org/1999/xlink"
 xmlns:xodm="http://www.corel.com/coreldraw/odm/2003">
 <defs>
  <style type="text/css">
   <![CDATA[
    .fil0 {fill:none}
    .fil13 {fill:#1C1D1D;fill-rule:nonzero}
    .fil9 {fill:#380F2A;fill-rule:nonzero}
    .fil3 {fill:#490F2F;fill-rule:nonzero}
    .fil4 {fill:#5E1134;fill-rule:nonzero}
    .fil6 {fill:#748AAF;fill-rule:nonzero}
    .fil11 {fill:#B54B56;fill-rule:nonzero}
    .fil14 {fill:#DD5B67;fill-rule:nonzero}
    .fil7 {fill:#E97C6E;fill-rule:nonzero}
    .fil8 {fill:#F2A080;fill-rule:nonzero}
    .fil1 {fill:#F4DDC3;fill-rule:nonzero}
    .fil5 {fill:#F69728;fill-rule:nonzero}
    .fil2 {fill:#F6AA52;fill-rule:nonzero}
    .fil10 {fill:#F7BF91;fill-rule:nonzero}
    .fil12 {fill:white;fill-rule:nonzero}
   ]]>
  </style>
 </defs>
 <g id="Layer_x0020_1">
  <metadata id="CorelCorpID_0Corel-Layer"/>
  <g id="_105553117390464">
   <rect class="fil0" width="55.69" height="55.69"/>
   <path class="fil1" d="M55.69 27.84c0,15.38 -12.47,27.85 -27.85,27.85 -15.37,0 -27.84,-12.47 -27.84,-27.85 0,-15.37 12.47,-27.84 27.84,-27.84 15.38,0 27.85,12.47 27.85,27.84z"/>
   <g>
    <g>
     <path class="fil2" d="M6.72 21.6l0.25 -0.79 0.25 0.79c0.28,0.86 0.87,1.58 1.66,2.01 -0.79,0.43 -1.38,1.15 -1.66,2.01l-0.25 0.79 -0.25 -0.79c-0.27,-0.86 -0.86,-1.58 -1.65,-2.01 0.79,-0.43 1.38,-1.15 1.65,-2.01z"/>
    </g>
    <g>
     <path class="fil2" d="M45.93 34.33l0.25 -0.79 0.25 0.79c0.27,0.86 0.86,1.58 1.65,2.01l0 0c-0.79,0.43 -1.38,1.15 -1.65,2.01l-0.25 0.79 -0.25 -0.79c-0.27,-0.86 -0.87,-1.58 -1.66,-2.01 0.79,-0.43 1.39,-1.15 1.66,-2.01z"/>
    </g>
    <g>
     <path class="fil2" d="M45.3 14.75l0.16 -0.52 0.17 0.52c0.18,0.56 0.57,1.03 1.09,1.32l0 0c-0.52,0.28 -0.91,0.75 -1.09,1.32l-0.17 0.51 -0.16 -0.51c-0.18,-0.57 -0.57,-1.04 -1.09,-1.32 0.52,-0.29 0.91,-0.76 1.09,-1.32z"/>
    </g>
    <g>
     <path class="fil2" d="M12.35 29.64l0.16 -0.52 0.16 0.52c0.18,0.56 0.57,1.04 1.09,1.32 -0.52,0.29 -0.91,0.76 -1.09,1.32l-0.16 0.52 -0.16 -0.52c-0.18,-0.56 -0.57,-1.03 -1.09,-1.32 0.52,-0.28 0.91,-0.76 1.09,-1.32z"/>
    </g>
    <g>
     <path class="fil2" d="M10.62 14.03l0.16 -0.51 0.17 0.51c0.18,0.57 0.57,1.04 1.08,1.32 -0.51,0.29 -0.9,0.76 -1.08,1.32l-0.17 0.52 -0.16 -0.52c-0.18,-0.56 -0.57,-1.03 -1.09,-1.32 0.52,-0.28 0.91,-0.75 1.09,-1.32z"/>
    </g>
   </g>
   <g>
    <g>
     <path class="fil3" d="M14.07 6.2c0.01,0.15 0.06,0.3 0.13,0.43 0.26,0.44 0.74,0.7 1.21,0.89 1.18,0.48 2.44,0.68 3.66,0.98 1.23,0.31 2.47,0.73 3.43,1.55 0.97,0.82 1.6,2.12 1.32,3.34 -0.42,1.84 0.81,1.74 1.04,0.13 0.01,-0.09 0.02,-0.18 0.03,-0.28 0.09,-1.55 -0.21,-3.06 -1.13,-4.35 -1.08,-1.51 -2.84,-2.51 -4.68,-2.66 -0.98,-0.08 -2.01,0.05 -2.89,-0.39 -0.55,-0.28 -1.14,-0.78 -1.69,-0.53 -0.32,0.15 -0.46,0.53 -0.43,0.89z"/>
     <path class="fil4" d="M14.07 6.2c0.34,-0.08 0.7,-0.01 1.05,0.06 1.18,0.24 2.37,0.48 3.55,0.72 1.23,0.25 2.48,0.51 3.55,1.16 1.22,0.75 2.05,2.04 2.35,3.42 0.07,0.32 0.11,1.56 0.29,1.96 0.01,-0.09 0.02,-0.18 0.03,-0.28 0.09,-1.55 -0.21,-3.06 -1.13,-4.35 -1.08,-1.51 -2.84,-2.51 -4.68,-2.66 -0.98,-0.08 -2.01,0.05 -2.89,-0.39 -0.55,-0.28 -1.14,-0.78 -1.69,-0.53 -0.32,0.15 -0.46,0.53 -0.43,0.89z"/>
     <path class="fil5" d="M17.97 6.29c-0.01,0.02 -0.01,0.04 -0.01,0.06 -0.03,0.75 0.25,1.48 0.77,2.02 0.11,0.12 0.29,0.12 0.4,0.01 0.11,-0.11 0.12,-0.29 0.01,-0.4 -0.4,-0.42 -0.63,-1.02 -0.61,-1.61 0,-0.15 -0.12,-0.29 -0.28,-0.29 -0.13,-0.01 -0.25,0.09 -0.28,0.21z"/>
     <path class="fil5" d="M17.4 7.94c-0.03,0.1 0,0.2 0.09,0.27 0.11,0.09 0.28,0.07 0.37,-0.04 0.46,-0.57 1.04,-1.05 1.7,-1.38 0.13,-0.06 0.18,-0.22 0.12,-0.35 -0.07,-0.13 -0.23,-0.19 -0.36,-0.12 -0.72,0.36 -1.37,0.89 -1.87,1.52 -0.03,0.03 -0.05,0.06 -0.05,0.1z"/>
    </g>
    <g>
     <path class="fil3" d="M46.87 15.64c-0.12,0.08 -0.26,0.15 -0.41,0.17 -0.5,0.09 -1.01,-0.11 -1.47,-0.35 -1.11,-0.59 -2.08,-1.42 -3.1,-2.17 -1.03,-0.74 -2.15,-1.42 -3.39,-1.63 -1.25,-0.21 -2.66,0.14 -3.41,1.14 -1.14,1.51 -1.85,0.51 -0.77,-0.7 0.06,-0.07 0.13,-0.14 0.2,-0.21 1.12,-1.07 2.48,-1.81 4.06,-1.94 1.84,-0.14 3.74,0.56 5.05,1.87 0.69,0.7 1.25,1.57 2.15,1.96 0.57,0.25 1.33,0.37 1.49,0.96 0.1,0.34 -0.1,0.69 -0.4,0.9z"/>
     <path class="fil4" d="M46.87 15.64c-0.16,-0.31 -0.45,-0.55 -0.72,-0.77 -0.95,-0.75 -1.89,-1.5 -2.84,-2.25 -0.98,-0.78 -1.98,-1.58 -3.17,-1.97 -1.36,-0.45 -2.88,-0.25 -4.13,0.4 -0.29,0.16 -1.27,0.92 -1.69,1.05 0.06,-0.07 0.13,-0.14 0.2,-0.21 1.12,-1.07 2.48,-1.81 4.06,-1.94 1.84,-0.14 3.74,0.56 5.05,1.87 0.69,0.7 1.25,1.57 2.15,1.96 0.57,0.25 1.33,0.37 1.49,0.96 0.1,0.34 -0.1,0.69 -0.4,0.9z"/>
     <path class="fil5" d="M44.29 12.72c-0.01,0.01 -0.02,0.03 -0.04,0.04 -0.55,0.5 -1.3,0.76 -2.04,0.71 -0.16,-0.01 -0.28,-0.14 -0.27,-0.3 0.01,-0.16 0.15,-0.28 0.3,-0.27 0.59,0.04 1.2,-0.17 1.63,-0.56 0.12,-0.11 0.3,-0.1 0.4,0.02 0.09,0.1 0.1,0.25 0.02,0.36z"/>
     <path class="fil5" d="M43.4 14.21c-0.06,0.08 -0.16,0.13 -0.27,0.11 -0.14,-0.03 -0.23,-0.17 -0.2,-0.31 0.14,-0.72 0.13,-1.48 -0.04,-2.19 -0.04,-0.14 0.05,-0.29 0.19,-0.32 0.14,-0.03 0.29,0.05 0.32,0.2 0.19,0.78 0.2,1.62 0.04,2.41 0,0.04 -0.02,0.07 -0.04,0.1z"/>
    </g>
    <g>
     <path class="fil3" d="M53.42 44.25c-0.91,0.49 -2.08,-0.27 -2.45,-1.23 -0.03,-0.07 -0.05,-0.14 -0.07,-0.21 -0.25,-0.91 0.08,-1.93 -0.1,-2.87 -1.09,-5.88 -5.41,-14.62 -11.19,-14.39 -1.03,0.04 -4.01,-0.7 -3.46,-2.43 0.4,-1.27 3.1,-1 4.06,-0.89 0.18,0.02 0.35,0.05 0.52,0.07 3.46,0.57 6.56,2.84 8.57,5.64 2.76,3.85 3.87,8.6 4.81,13.23 0.23,1.11 0.3,2.55 -0.69,3.08z"/>
     <path class="fil4" d="M53.42 44.25c-0.91,0.49 -2.08,-0.27 -2.45,-1.23 -0.03,-0.07 -0.05,-0.14 -0.07,-0.21 0.46,-0.89 1.08,-1.72 1.35,-2.69 0.34,-1.19 0.14,-2.47 -0.16,-3.66 -0.39,-1.51 -0.94,-2.99 -1.65,-4.38 -1.28,-2.53 -3.04,-4.81 -5.16,-6.69 -1.05,-0.92 -2.19,-1.76 -3.4,-2.46 -0.27,-0.16 -0.83,-0.34 -1.15,-0.63 3.46,0.57 6.56,2.84 8.57,5.64 2.76,3.85 3.87,8.6 4.81,13.23 0.23,1.11 0.3,2.55 -0.69,3.08z"/>
     <path class="fil5" d="M46.86 30.42c-0.11,0 -0.22,-0.05 -0.3,-0.14 -0.14,-0.17 -0.12,-0.42 0.04,-0.56 0.9,-0.77 1.27,-2.1 0.89,-3.22 -0.07,-0.21 0.05,-0.43 0.25,-0.5 0.21,-0.07 0.44,0.04 0.51,0.25 0.47,1.42 0.01,3.09 -1.13,4.07 -0.07,0.06 -0.16,0.1 -0.26,0.1z"/>
     <path class="fil5" d="M47.09 28.84c-0.71,0 -1.43,-0.08 -2.13,-0.25 -0.21,-0.05 -0.34,-0.27 -0.29,-0.48 0.05,-0.22 0.27,-0.35 0.48,-0.3 1.31,0.32 2.69,0.31 4,-0.02 0.21,-0.06 0.43,0.07 0.48,0.28 0.06,0.21 -0.07,0.43 -0.28,0.49 -0.74,0.18 -1.5,0.28 -2.26,0.28z"/>
     <path class="fil6" d="M50.98 34.99c-0.55,0.21 -1.11,0.36 -1.69,0.45 -0.18,0.02 -0.35,-0.1 -0.37,-0.28 -0.03,-0.18 0.1,-0.34 0.27,-0.37 1.09,-0.15 2.14,-0.58 3.03,-1.22 0.14,-0.11 0.34,-0.08 0.45,0.07 0.1,0.14 0.07,0.35 -0.07,0.45 -0.5,0.37 -1.05,0.67 -1.62,0.9z"/>
     <path class="fil5" d="M51.47 36.2c-0.54,0.21 -1.11,0.37 -1.69,0.45 -0.18,0.02 -0.34,-0.1 -0.36,-0.28 -0.03,-0.17 0.09,-0.34 0.27,-0.36 1.09,-0.16 2.13,-0.58 3.02,-1.23 0.15,-0.11 0.35,-0.07 0.46,0.07 0.1,0.14 0.07,0.35 -0.08,0.45 -0.5,0.37 -1.04,0.67 -1.62,0.9z"/>
    </g>
    <g>
     <path class="fil3" d="M50.27 26.31c0.13,0.83 0.21,1.72 -0.15,2.49 -0.35,0.77 -1.28,1.32 -2.06,0.99 -0.61,-0.26 -0.86,-0.89 -0.98,-1.58 -0.06,-0.35 -0.09,-0.72 -0.11,-1.06 -0.21,-3.79 -1.87,-7.44 -4.46,-10.19 -1.29,-1.38 -2.59,-2.29 -4.29,-2.94 -1.08,-0.42 -1.47,-1.54 -0.77,-2.09 0.23,-0.19 0.58,-0.31 1.06,-0.33 0.73,-0.03 1.42,0.31 2.06,0.68 5.08,2.94 8.74,8.23 9.7,14.03z"/>
     <path class="fil4" d="M50.27 26.31c0.13,0.83 0.21,1.72 -0.15,2.49 -0.35,0.77 -1.28,1.32 -2.06,0.99 -0.61,-0.26 -0.86,-0.89 -0.98,-1.58 0.18,-0.18 0.39,-0.35 0.62,-0.48 0.33,-0.17 0.69,-0.29 0.98,-0.53 0.92,-0.73 0.7,-2.18 0.29,-3.3 -1.69,-4.66 -5.13,-8.65 -9.45,-11.08 -0.53,-0.3 -1.37,-0.57 -2.07,-0.89 0.23,-0.19 0.58,-0.31 1.06,-0.33 0.73,-0.03 1.42,0.31 2.06,0.68 5.08,2.94 8.74,8.23 9.7,14.03z"/>
    </g>
    <g>
     <path class="fil7" d="M29.18 52.25c-2.47,0.31 -5.01,-0.3 -7.18,-1.54 0.3,-2.88 0.48,-6.37 0.48,-6.37l9.75 0.65c0,0 -0.34,3.1 -0.25,6 -0.79,0.73 -1.9,1.12 -2.8,1.26z"/>
     <path class="fil8" d="M21.24 54.94c0.22,-0.57 0.61,-2.68 0.76,-4.23 0.9,0.51 1.86,0.92 2.86,1.2 1.3,0.36 2.66,0.5 4,0.38 0.11,-0.01 0.22,-0.03 0.32,-0.04 0.9,-0.14 2.01,-0.53 2.8,-1.27 0.04,1.43 0.49,4.17 0.82,4.31 -4.01,0.52 -7.59,0.68 -11.56,-0.35z"/>
    </g>
    <g>
     <path class="fil9" d="M26.16 14.94c-0.28,3.31 -3.87,1.62 -5.05,-0.1 -0.65,-0.96 -1.25,-2.03 -2.25,-2.63 -1.63,-0.98 -3.83,-0.36 -5.2,0.95 -1.37,1.31 -2.08,3.15 -2.69,4.94 -0.62,1.79 -1.19,3.65 -2.38,5.12 -0.66,0.81 -1.9,1.87 -3,2.35 -0.89,0.39 -1.68,0.4 -1.98,-0.39 -0.78,-1.97 2.27,-3.58 3.47,-5.34 1.33,-1.96 2.66,-3.92 3.99,-5.88 0.99,-1.44 2.01,-2.93 3.44,-3.94 1.91,-1.36 4.49,-1.73 6.71,-0.96 0.78,0.27 1.69,0.81 2.53,1.5 1.39,1.18 2.55,2.8 2.41,4.38z"/>
     <path class="fil3" d="M23.75 10.56c-0.05,0.29 -0.13,0.57 -0.25,0.84 0.19,-0.8 -2.29,-1.96 -2.73,-2.11 -1.27,-0.43 -2.69,-0.41 -3.93,0.09 -1.93,0.79 -3.25,2.55 -4.47,4.24 -2.39,3.29 -4.78,6.57 -7.17,9.86 -0.39,0.54 -0.77,1.33 -0.3,1.8 0.18,0.18 0.43,0.25 0.69,0.29 -0.89,0.39 -1.68,0.4 -1.98,-0.39 -0.78,-1.97 2.27,-3.58 3.47,-5.34 1.33,-1.96 2.66,-3.92 3.99,-5.88 0.99,-1.44 2.01,-2.93 3.44,-3.94 1.91,-1.36 4.49,-1.73 6.71,-0.96 0.78,0.27 1.69,0.81 2.53,1.5z"/>
    </g>
    <path class="fil9" d="M5.62 33.58c-0.86,2.6 -1.47,5.61 -0.01,7.92 1.43,2.28 4.38,3.07 7.07,3.14 2.69,0.07 5.43,-0.36 8.04,0.28 1.93,0.48 3.74,1.53 5.72,1.51 2.21,-0.03 4.2,-1.39 6.4,-1.61 3.13,-0.3 6.34,1.75 9.31,0.7 1.56,-0.54 2.74,-1.9 3.39,-3.42 0.66,-1.52 0.83,-3.2 0.86,-4.85 0.1,-6.12 -1.77,-12.26 -5.27,-17.28 -1.18,-1.7 -2.61,-3.33 -4.5,-4.18 -3.35,-1.52 -7.35,-0.3 -10.9,-1.29 -2.38,-0.66 -4.43,-2.29 -6.85,-2.81 -3.57,-0.76 -7.49,1.4 -8.87,4.75 -1.33,3.22 0.35,6.3 -1.2,9.48 -1.22,2.5 -2.32,5.02 -3.19,7.66z"/>
    <g>
     <g>
      <g>
       <path class="fil10" d="M15.7 37.71c-1.75,-0.28 -2.95,-1.67 -3.56,-2.82 -0.14,-0.26 -0.25,-0.5 -0.33,-0.72 -0.44,-1.18 -0.35,-5.18 1,-6.04 0.94,-0.59 1.54,0.39 1.82,1.03 0,0 0,0 0,0 0.11,0.27 0.17,0.49 0.17,0.49l0.9 8.06z"/>
       <path class="fil8" d="M15.7 37.71c-1.75,-0.28 -2.95,-1.67 -3.56,-2.82 -0.06,-0.11 -0.1,-0.22 -0.14,-0.33 -0.43,-1.18 -0.34,-5.18 1,-6.04 0.76,-0.48 1.3,0.07 1.63,0.64 0,0 0,0 0,0 0.11,0.27 0.17,0.49 0.17,0.49l0.9 8.06z"/>
       <path class="fil7" d="M12.22 31.28c-0.09,0.32 -0.07,0.65 0,0.97 0.27,1.37 1.27,2.45 2.22,3.46 -0.27,-0.67 -0.33,-1.41 -0.23,-2.12 0.04,-0.25 0.09,-0.49 0.11,-0.74 0.07,-1.01 -1.61,-3.43 -2.1,-1.57z"/>
       <path class="fil11" d="M14.93 36.12c0,0 -0.02,-0.01 -0.06,-0.04 -0.03,-0.03 -0.09,-0.07 -0.15,-0.14 -0.13,-0.12 -0.31,-0.31 -0.47,-0.6 -0.16,-0.28 -0.3,-0.65 -0.35,-1.09 -0.04,-0.43 0,-0.93 0.21,-1.4 0.03,-0.06 0.06,-0.11 0.09,-0.17l0.02 -0.04c0,-0.01 0,0 0,-0.01l0 0.01 0 0 0 0c0,0 0,0 0,-0.01l-0.01 -0.04 -0.03 -0.08c-0.02,-0.05 -0.04,-0.1 -0.07,-0.15 -0.08,-0.2 -0.17,-0.4 -0.27,-0.57 -0.09,-0.18 -0.19,-0.34 -0.29,-0.5 -0.11,-0.14 -0.2,-0.29 -0.3,-0.39 -0.1,-0.11 -0.21,-0.18 -0.32,-0.2 -0.1,-0.03 -0.21,0 -0.28,0.04 -0.07,0.04 -0.11,0.09 -0.13,0.13 -0.02,0.04 -0.02,0.07 -0.02,0.07 0,0 -0.01,-0.02 0,-0.07 0.01,-0.05 0.05,-0.12 0.12,-0.18 0.07,-0.06 0.18,-0.11 0.33,-0.11 0.14,0.01 0.29,0.08 0.42,0.19 0.13,0.1 0.25,0.23 0.37,0.38 0.12,0.14 0.25,0.3 0.36,0.48 0.12,0.18 0.23,0.38 0.33,0.59 0.02,0.05 0.05,0.1 0.07,0.16l0.03 0.08 0.05 0.12 0.03 0.08c-0.01,0.03 -0.03,0.05 -0.04,0.08l-0.06 0.11c-0.02,0.05 -0.05,0.1 -0.07,0.15 -0.18,0.41 -0.24,0.84 -0.24,1.23 0.02,0.4 0.1,0.75 0.21,1.04 0.11,0.28 0.25,0.5 0.35,0.64 0.05,0.07 0.09,0.12 0.12,0.16 0.03,0.03 0.05,0.05 0.05,0.05z"/>
      </g>
      <g>
       <path class="fil10" d="M35.97 38.9c1.76,-0.08 3.12,-1.32 3.86,-2.39 0.17,-0.24 0.31,-0.47 0.41,-0.68 0.57,-1.12 0.95,-5.11 -0.29,-6.11 -0.86,-0.7 -1.57,0.2 -1.92,0.81 0,0 0,0 0,0 -0.15,0.26 -0.23,0.46 -0.23,0.46l-1.83 7.91z"/>
       <path class="fil8" d="M35.97 38.9c1.76,-0.08 3.12,-1.32 3.86,-2.39 0.07,-0.11 0.13,-0.21 0.18,-0.31 0.57,-1.12 0.94,-5.11 -0.29,-6.12 -0.7,-0.57 -1.3,-0.08 -1.69,0.45 0,0 0,0 0,0 -0.15,0.26 -0.23,0.46 -0.23,0.46l-1.83 7.91z"/>
       <path class="fil7" d="M40.18 32.92c0.04,0.32 -0.02,0.65 -0.12,0.96 -0.43,1.32 -1.55,2.28 -2.61,3.18 0.34,-0.64 0.5,-1.36 0.48,-2.08 -0.01,-0.25 -0.04,-0.5 -0.03,-0.75 0.06,-1.01 2,-3.22 2.28,-1.31z"/>
       <path class="fil11" d="M36.92 37.41c0,0 0.02,-0.02 0.06,-0.04 0.04,-0.03 0.1,-0.06 0.17,-0.11 0.14,-0.11 0.34,-0.28 0.53,-0.55 0.19,-0.26 0.37,-0.61 0.47,-1.04 0.1,-0.42 0.11,-0.92 -0.04,-1.41 -0.02,-0.07 -0.04,-0.13 -0.06,-0.18l-0.02 -0.05c-0.01,-0.01 0,0 0,0l0 0 -0.01 0 0 0c0,0 0,0 0.01,-0.01l0.02 -0.04 0.03 -0.07c0.03,-0.05 0.06,-0.1 0.08,-0.15 0.11,-0.19 0.22,-0.37 0.34,-0.53 0.12,-0.17 0.24,-0.32 0.35,-0.46 0.12,-0.13 0.23,-0.26 0.34,-0.35 0.12,-0.1 0.23,-0.16 0.34,-0.17 0.11,-0.01 0.21,0.03 0.28,0.08 0.06,0.04 0.1,0.1 0.11,0.15 0.02,0.04 0.01,0.06 0.02,0.06 -0.01,0 0,-0.02 0,-0.07 -0.01,-0.04 -0.03,-0.12 -0.1,-0.19 -0.06,-0.06 -0.17,-0.13 -0.31,-0.14 -0.14,-0.01 -0.3,0.04 -0.44,0.13 -0.14,0.09 -0.28,0.21 -0.41,0.33 -0.14,0.13 -0.28,0.28 -0.42,0.44 -0.14,0.17 -0.27,0.35 -0.39,0.55 -0.03,0.05 -0.06,0.1 -0.09,0.15l-0.05 0.08 -0.05 0.11 -0.04 0.08c0,0.02 0.02,0.05 0.03,0.08l0.04 0.11c0.02,0.06 0.04,0.11 0.06,0.16 0.13,0.43 0.14,0.87 0.09,1.26 -0.06,0.39 -0.19,0.73 -0.33,1 -0.14,0.27 -0.3,0.46 -0.42,0.59 -0.06,0.07 -0.11,0.11 -0.14,0.15 -0.03,0.03 -0.05,0.05 -0.05,0.05z"/>
      </g>
      <path class="fil10" d="M37.92 30.27c0,0 -0.77,7.75 -3,10.51 -1.86,2.31 -4.54,6.01 -8.53,7.1 -0.78,0.21 -1.61,0.16 -2.36,-0.14 -3.84,-1.54 -6.06,-5.53 -7.65,-8.04 -1.89,-3.01 -1.75,-10.79 -1.75,-10.79 0.01,-0.52 0.04,-1.02 0.07,-1.5l0 -0.02c1.1,-14.69 12.48,-13.22 12.48,-13.22 0,0 11.25,0.76 10.78,15.33 -0.01,0.26 -0.02,0.51 -0.04,0.77z"/>
      <path class="fil8" d="M37.96 29.5c-0.14,1.24 -0.97,7.82 -2.98,10.31 -1.87,2.32 -4.54,6.02 -8.53,7.1 -0.78,0.21 -1.62,0.16 -2.37,-0.14 -3.83,-1.54 -6.06,-5.53 -7.64,-8.04 -1.89,-3 -1.76,-10.79 -1.76,-10.79 0.01,-0.18 0.01,-0.36 0.02,-0.53l0 -0.02c1.1,-14.69 12.48,-13.22 12.48,-13.22 0,0 11.25,0.76 10.78,15.33z"/>
      <path class="fil12" d="M29.63 39.72c-0.18,0.48 -1.46,3.6 -4.81,3.03 -3.18,-0.54 -3.21,-3.63 -3.17,-4.39l7.98 1.36z"/>
      <g>
       <path class="fil13" d="M22.18 31.52c-0.2,-1.2 -1.12,-2.24 -2.27,-2.57 -1.16,-0.34 -2.49,0.06 -3.29,0.96 0,0 2.17,-0.44 3.32,0.08 1.15,0.52 2.24,1.53 2.24,1.53z"/>
       <path class="fil13" d="M29.13 31.97c0.35,-1.16 1.4,-2.07 2.58,-2.26 1.19,-0.18 2.47,0.38 3.14,1.39 0,0 -2.09,-0.72 -3.3,-0.36 -1.21,0.37 -2.42,1.23 -2.42,1.23z"/>
      </g>
      <path class="fil7" d="M25.44 35.83c0.59,0.06 1.13,0.46 1.34,1.01 0.03,0.07 0.05,0.14 0.03,0.21 -0.04,0.1 -0.16,0.15 -0.27,0.17 -0.75,0.17 -1.54,0.18 -2.3,0.03 -1.37,-0.28 0.52,-1.48 1.2,-1.42z"/>
      <path class="fil14" d="M24.65 36.92c0,0 0,-0.08 0.02,-0.23 0.01,-0.07 0.03,-0.16 0.04,-0.27 0.01,-0.1 0.03,-0.22 0.04,-0.34 0.01,-0.13 0.03,-0.27 0.04,-0.42 0.01,-0.15 0.02,-0.31 0.04,-0.47 0.02,-0.33 0.04,-0.7 0.06,-1.07 0.01,-0.38 0.02,-0.74 0.03,-1.08 -0.01,-0.16 0,-0.32 -0.01,-0.47 0.01,-0.15 0,-0.29 0,-0.42 0,-0.13 -0.01,-0.24 -0.01,-0.35 -0.01,-0.1 -0.01,-0.19 -0.02,-0.27 0,-0.14 -0.01,-0.23 -0.01,-0.23 0,0 0.05,0.07 0.12,0.2 0.04,0.07 0.08,0.15 0.13,0.25 0.04,0.09 0.09,0.2 0.14,0.33 0.05,0.12 0.1,0.26 0.14,0.42 0.05,0.15 0.08,0.31 0.12,0.49 0.06,0.35 0.1,0.74 0.08,1.15 -0.01,0.42 -0.08,0.81 -0.18,1.15 -0.05,0.17 -0.09,0.33 -0.15,0.48 -0.06,0.15 -0.12,0.29 -0.18,0.41 -0.05,0.12 -0.12,0.22 -0.17,0.32 -0.05,0.09 -0.1,0.17 -0.14,0.23 -0.09,0.12 -0.13,0.19 -0.13,0.19z"/>
     </g>
     <g>
      <path class="fil9" d="M36.31 37c0,0 0.04,-0.17 0.12,-0.48 0.02,-0.08 0.04,-0.16 0.06,-0.25 0.03,-0.1 0.05,-0.2 0.08,-0.31 0.05,-0.21 0.11,-0.45 0.17,-0.73 0.03,-0.13 0.06,-0.27 0.09,-0.42 0.04,-0.15 0.07,-0.3 0.1,-0.46 0.07,-0.32 0.13,-0.66 0.2,-1.01 0.13,-0.71 0.27,-1.49 0.4,-2.3 0.12,-0.82 0.22,-1.6 0.31,-2.32 0.04,-0.36 0.09,-0.71 0.11,-1.03 0.02,-0.16 0.04,-0.32 0.05,-0.47 0.01,-0.15 0.02,-0.3 0.03,-0.43 0.03,-0.28 0.04,-0.53 0.06,-0.76 0.01,-0.11 0.02,-0.21 0.02,-0.31 0.01,-0.1 0.01,-0.18 0.02,-0.26 0.01,-0.32 0.03,-0.5 0.03,-0.5 0,0 0.05,0.16 0.13,0.47 0.02,0.08 0.05,0.16 0.07,0.25 0.02,0.1 0.04,0.2 0.07,0.31 0.04,0.22 0.1,0.47 0.14,0.75 0.02,0.15 0.04,0.29 0.07,0.45 0.02,0.15 0.03,0.32 0.05,0.48 0.03,0.34 0.05,0.7 0.06,1.09 0.01,0.76 -0.03,1.61 -0.16,2.48 -0.14,0.87 -0.35,1.69 -0.59,2.4 -0.13,0.36 -0.25,0.7 -0.38,1 -0.07,0.15 -0.13,0.3 -0.19,0.44 -0.07,0.14 -0.14,0.27 -0.2,0.39 -0.12,0.26 -0.25,0.47 -0.36,0.66 -0.05,0.1 -0.1,0.19 -0.15,0.26 -0.05,0.08 -0.1,0.15 -0.14,0.22 -0.17,0.25 -0.27,0.39 -0.27,0.39z"/>
      <path class="fil9" d="M15.66 38.14c0,0 -0.06,-0.15 -0.17,-0.44 -0.11,-0.29 -0.25,-0.72 -0.41,-1.25 -0.16,-0.54 -0.32,-1.18 -0.46,-1.91 -0.15,-0.73 -0.27,-1.54 -0.34,-2.4 -0.06,-0.86 -0.07,-1.69 -0.05,-2.44 0.02,-0.75 0.08,-1.42 0.15,-1.99 0.07,-0.56 0.14,-1.02 0.2,-1.33 0.06,-0.31 0.1,-0.49 0.1,-0.49 0,0 0.03,0.18 0.07,0.49 0.04,0.31 0.1,0.77 0.17,1.32 0.06,0.55 0.14,1.21 0.22,1.94 0.07,0.72 0.15,1.52 0.22,2.35 0.06,0.84 0.12,1.64 0.15,2.37 0.05,0.73 0.07,1.39 0.1,1.95 0.02,0.56 0.03,1.02 0.04,1.34 0.01,0.32 0.01,0.49 0.01,0.49z"/>
      <g>
       <path class="fil7" d="M19.42 35.29c-0.22,0.5 -1.62,0.36 -3.12,-0.3 -1.5,-0.67 -2.54,-1.61 -2.32,-2.11 0.22,-0.5 1.62,-0.36 3.12,0.3 1.5,0.67 2.54,1.61 2.32,2.11z"/>
       <path class="fil7" d="M38.12 34.19c0.18,0.52 -0.93,1.37 -2.48,1.92 -1.55,0.54 -2.96,0.56 -3.14,0.05 -0.18,-0.52 0.93,-1.38 2.48,-1.92 1.56,-0.54 2.96,-0.56 3.14,-0.05z"/>
      </g>
     </g>
     <path class="fil3" d="M15.67 25.37c0,0 5.46,-3.23 7.16,-1.77 1,0.85 0.11,1.29 0.11,1.29l-7.27 0.48z"/>
     <path class="fil3" d="M36.93 26.43c0,0 -5.11,-3.76 -6.95,-2.48 -1.07,0.74 -0.23,1.28 -0.23,1.28l7.18 1.2z"/>
    </g>
    <path class="fil3" d="M24.08 15.21c-0.84,0.43 -1.83,0.41 -2.78,0.38 -0.94,-0.03 -1.93,-0.05 -2.78,0.36 -0.94,0.46 -1.55,1.36 -2.12,2.24 -2.08,3.18 -4.17,6.37 -6.25,9.55 -1.18,1.81 -2.37,3.63 -3.05,5.68 -0.68,2.04 -0.8,4.36 0.15,6.29 0.42,0.86 1.03,1.61 1.39,2.49 0.09,0.22 0.17,0.46 0.22,0.7 0.14,0.71 0.07,1.46 -0.38,2 -0.59,0.72 -1.67,0.86 -2.53,0.53 -0.87,-0.33 -1.53,-1.04 -2.03,-1.82 -1.75,-2.68 -1.88,-6.18 -1.02,-9.27 0.85,-3.09 2.59,-5.85 4.38,-8.51 1.79,-2.66 3.69,-5.28 4.92,-8.24 0.78,-1.87 1.31,-3.9 2.62,-5.44 0.84,-0.99 1.99,-1.71 3.24,-2.07 0.72,-0.22 1.46,-0.3 2.2,-0.26 2.1,0.11 7.83,3.39 3.82,5.39z"/>
    <path class="fil4" d="M18.06 10.08c-0.01,0.01 -0.02,0.02 -0.03,0.03 -1.13,1.18 -2.15,1.93 -2.84,3.5 -0.66,1.53 -1.01,3.19 -1.6,4.76 -1.32,3.5 -3.81,6.42 -6.03,9.44 -2.22,3.02 -4.26,6.4 -4.44,10.15 -0.05,0.98 0.04,1.99 0.46,2.88 0.41,0.89 1.19,1.65 2.15,1.85 0.65,0.14 1.31,0.02 1.97,0.02 0.39,0 0.81,0.05 1.16,0.19 0.14,0.71 0.07,1.46 -0.38,2 -0.59,0.72 -1.67,0.86 -2.53,0.53 -0.87,-0.33 -1.53,-1.04 -2.03,-1.82 -1.75,-2.68 -1.88,-6.18 -1.02,-9.27 0.85,-3.09 2.59,-5.85 4.38,-8.51 1.79,-2.66 3.69,-5.28 4.92,-8.24 0.78,-1.87 1.31,-3.9 2.62,-5.44 0.84,-0.99 1.99,-1.71 3.24,-2.07z"/>
    <path class="fil5" d="M11.81 23.1c-0.65,-0.66 -1.1,-1.55 -1.22,-2.47 -0.03,-0.26 0.15,-0.51 0.42,-0.54 0.26,-0.03 0.5,0.15 0.53,0.42 0.13,1 0.75,1.93 1.62,2.44 0.23,0.14 0.31,0.43 0.18,0.66 -0.14,0.23 -0.43,0.31 -0.66,0.17 -0.32,-0.18 -0.61,-0.41 -0.87,-0.68z"/>
    <path class="fil5" d="M9.8 22.76c-0.09,-0.09 -0.14,-0.21 -0.13,-0.35 0.01,-0.27 0.23,-0.47 0.49,-0.46 1.19,0.04 2.39,-0.29 3.39,-0.93 0.22,-0.14 0.52,-0.07 0.66,0.15 0.14,0.22 0.08,0.52 -0.15,0.66 -1.16,0.75 -2.55,1.13 -3.93,1.08 -0.13,-0.01 -0.24,-0.06 -0.33,-0.15z"/>
    <g>
     <path class="fil3" d="M47.8 46.76c-1.76,1 -3.14,-0.74 -4.17,-3.11 -0.86,-1.93 -1.48,-4.26 -1.92,-5.85 -1.21,-4.41 -0.58,-9.1 -1.2,-13.63 -0.77,-5.61 -3.57,-9 -8.87,-10.45 -1.14,-0.31 -1.99,0.15 -1.65,-1.26 0.26,-1.13 1.77,-1.35 2.66,-1.48 0.17,-0.02 0.34,-0.04 0.51,-0.05 2.44,-0.17 5.18,0.93 7,2.45 4.13,3.46 5.01,9.37 5.59,14.73 0.68,6.22 7.49,15.56 2.05,18.65z"/>
     <path class="fil4" d="M47.8 46.76c-1.76,1 -3.14,-0.74 -4.17,-3.11 0.05,-0.02 0.11,-0.03 0.17,-0.05 1.09,-0.19 2.29,0.76 3.27,0.21 0.92,-0.51 0.81,-1.84 0.56,-2.87 -1.38,-5.85 -2.76,-11.69 -4.14,-17.55 -0.66,-2.76 -1.35,-5.6 -3.03,-7.88 -1.32,-1.81 -3.22,-3.13 -5.33,-3.83 -0.5,-0.16 -1.47,-0.31 -1.97,-0.75 2.44,-0.17 5.18,0.93 7,2.45 4.13,3.46 5.01,9.37 5.59,14.73 0.68,6.22 7.49,15.56 2.05,18.65z"/>
     <path class="fil5" d="M39.95 21.07c-0.17,-0.01 -0.35,-0.03 -0.52,-0.07 -0.3,-0.07 -0.5,-0.37 -0.43,-0.68 0.07,-0.31 0.37,-0.5 0.67,-0.43 0.61,0.13 1.3,0 1.83,-0.35 0.53,-0.35 0.93,-0.93 1.06,-1.56 0.06,-0.31 0.36,-0.51 0.66,-0.45 0.3,0.07 0.5,0.37 0.43,0.68 -0.19,0.93 -0.75,1.77 -1.54,2.29 -0.64,0.42 -1.4,0.62 -2.16,0.57z"/>
     <path class="fil5" d="M41.17 23.1c-0.26,-0.02 -0.52,-0.06 -0.76,-0.14 -0.28,-0.09 -0.44,-0.39 -0.35,-0.67 0.09,-0.28 0.39,-0.43 0.67,-0.34 0.58,0.19 1.24,0.11 1.77,-0.21 0.52,-0.32 0.9,-0.87 1.01,-1.47 0.05,-0.29 0.33,-0.48 0.61,-0.43 0.29,0.06 0.48,0.33 0.43,0.62 -0.16,0.9 -0.72,1.72 -1.5,2.19 -0.56,0.33 -1.23,0.49 -1.88,0.45z"/>
     <path class="fil6" d="M43.74 42.41c-0.41,-0.09 -0.81,-0.22 -1.19,-0.4 -0.43,-0.21 -0.61,-0.72 -0.4,-1.15 0.2,-0.42 0.72,-0.6 1.14,-0.4 0.9,0.43 1.98,0.45 2.89,0.06 0.92,-0.39 1.65,-1.18 1.95,-2.13 0.15,-0.45 0.64,-0.69 1.09,-0.55 0.45,0.15 0.69,0.63 0.54,1.08 -0.46,1.41 -1.54,2.6 -2.9,3.18 -0.98,0.42 -2.08,0.52 -3.12,0.31z"/>
    </g>
    <g>
     <path class="fil3" d="M46.48 44.49c-0.18,0.99 -0.99,1.94 -1.99,1.93 -0.8,-0.01 -1.5,-0.62 -1.84,-1.34 -0.07,-0.15 -0.14,-0.31 -0.19,-0.47 -0.19,-0.6 -0.24,-1.24 -0.29,-1.86 -0.11,-1.45 -0.22,-2.91 -0.34,-4.36 -0.13,-1.69 -0.26,-3.38 -0.55,-5.04 -0.38,-2.15 -1.02,-4.23 -1.65,-6.32 -0.86,-2.81 -1.72,-5.62 -2.58,-8.44 -0.47,-1.55 -1.57,-5.08 0.71,-5.12 0.09,0 0.19,0 0.28,0.01 2.1,0.19 3.61,2.85 4,4.66 0.52,2.42 0.09,4.94 0.16,7.42 0.09,2.99 0.94,5.91 1.79,8.79 0.7,2.4 1.4,4.79 2.1,7.18 0.28,0.97 0.57,1.97 0.39,2.96z"/>
     <path class="fil4" d="M46.48 44.49c-0.18,0.99 -0.99,1.94 -1.99,1.93 -0.8,-0.01 -1.5,-0.62 -1.84,-1.34 -0.07,-0.15 -0.14,-0.31 -0.19,-0.47 0.13,-0.13 0.28,-0.24 0.45,-0.31 0.5,-0.23 1.11,-0.19 1.58,-0.48 0.87,-0.54 0.8,-1.81 0.58,-2.81 -1.31,-6.03 -4.14,-11.8 -4.2,-17.96 -0.01,-1.86 0.23,-3.75 -0.14,-5.57 -0.41,-2 -1.46,-2.79 -2.91,-3.96 -0.02,-0.02 -0.04,-0.03 -0.06,-0.05 0.09,0 0.19,0 0.28,0.01 2.1,0.19 3.61,2.85 4,4.66 0.52,2.42 0.09,4.94 0.16,7.42 0.09,2.99 0.94,5.91 1.79,8.79 0.7,2.4 1.4,4.79 2.1,7.18 0.28,0.97 0.57,1.97 0.39,2.96z"/>
     <path class="fil6" d="M43.51 33.3c-0.68,0.42 -1.56,0.53 -2.31,0.26 -0.18,-0.06 -0.27,-0.24 -0.21,-0.42 0.06,-0.17 0.25,-0.26 0.42,-0.2 0.64,0.22 1.41,0.09 1.94,-0.33 0.14,-0.11 0.35,-0.09 0.46,0.06 0.11,0.14 0.09,0.35 -0.05,0.46 -0.08,0.06 -0.17,0.12 -0.25,0.17z"/>
     <path class="fil6" d="M43.17 32.38c-0.29,0.18 -0.61,0.29 -0.95,0.32 -0.54,0.06 -1.11,-0.1 -1.55,-0.43 -0.14,-0.1 -0.17,-0.31 -0.06,-0.46 0.1,-0.14 0.31,-0.17 0.46,-0.06 0.31,0.22 0.7,0.33 1.09,0.3 0.38,-0.04 0.75,-0.23 1,-0.51 0.13,-0.14 0.34,-0.15 0.47,-0.03 0.14,0.13 0.15,0.33 0.02,0.47 -0.14,0.16 -0.3,0.29 -0.48,0.4z"/>
    </g>
    <g>
     <path class="fil3" d="M38.17 44.09c-0.5,0.86 -0.8,1.93 -1.66,2.42 -0.84,0.48 -2.14,0.2 -2.41,-0.69 -0.01,-0.04 -0.02,-0.08 -0.03,-0.12 1.77,-3.75 3.56,-7.57 4.12,-11.68 0.53,-3.86 -0.13,-7.86 -1.78,-11.38 -0.87,-1.85 -2.09,-3.28 -3.26,-4.93 -0.55,-0.78 -1.09,-0.93 -0.36,-1.79 0.48,-0.57 1.64,-0.65 2.28,-0.39 0.44,0.18 0.81,0.45 1.13,0.79 0.64,0.65 1.08,1.53 1.43,2.39 3.34,7.99 6.87,14.33 0.54,25.38z"/>
     <path class="fil4" d="M38.17 44.09c-0.5,0.86 -0.8,1.93 -1.66,2.42 -0.84,0.48 -2.14,0.2 -2.41,-0.69 0.07,-0.11 0.14,-0.22 0.22,-0.32 0.44,-0.55 1.03,-0.96 1.57,-1.41 2.73,-2.28 4.29,-5.78 4.64,-9.32 0.35,-3.54 -0.44,-7.13 -1.77,-10.43 -0.76,-1.86 -1.7,-3.66 -2.22,-5.61 -0.18,-0.67 -0.45,-1.69 -0.34,-2.41 0.64,0.65 1.08,1.53 1.43,2.39 3.34,7.99 6.87,14.33 0.54,25.38z"/>
     <path class="fil5" d="M38.62 43.07c-1.16,-0.07 -2.29,-0.68 -2.97,-1.62 -0.16,-0.21 -0.11,-0.51 0.11,-0.67 0.21,-0.15 0.51,-0.1 0.67,0.11 0.58,0.8 1.59,1.28 2.57,1.23 0.27,-0.02 0.5,0.18 0.51,0.45 0.02,0.26 -0.19,0.49 -0.45,0.51 -0.15,0 -0.29,0 -0.44,-0.01z"/>
     <path class="fil5" d="M38.99 41.69c-0.49,-0.03 -0.98,-0.17 -1.4,-0.41 -0.7,-0.39 -1.24,-1.04 -1.49,-1.8 -0.08,-0.25 0.06,-0.52 0.31,-0.6 0.25,-0.09 0.52,0.05 0.6,0.3 0.18,0.53 0.56,0.99 1.05,1.27 0.49,0.27 1.08,0.36 1.63,0.24 0.26,-0.06 0.51,0.1 0.57,0.36 0.06,0.26 -0.1,0.51 -0.36,0.57 -0.3,0.07 -0.61,0.09 -0.91,0.07z"/>
     <path class="fil5" d="M39.88 27.64c-0.94,-0.06 -1.86,-0.42 -2.57,-1.03 -0.2,-0.17 -0.22,-0.47 -0.05,-0.67 0.18,-0.2 0.48,-0.23 0.68,-0.05 0.76,0.66 1.85,0.94 2.84,0.74 0.26,-0.06 0.52,0.11 0.57,0.37 0.05,0.26 -0.11,0.51 -0.37,0.56 -0.36,0.08 -0.73,0.1 -1.1,0.08z"/>
     <path class="fil5" d="M38.15 28.73c-0.12,-0.01 -0.25,-0.07 -0.33,-0.17 -0.17,-0.21 -0.15,-0.51 0.06,-0.68 0.91,-0.76 1.58,-1.8 1.9,-2.94 0.07,-0.26 0.33,-0.41 0.59,-0.34 0.25,0.07 0.4,0.33 0.33,0.59 -0.36,1.33 -1.15,2.55 -2.21,3.43 -0.1,0.08 -0.22,0.12 -0.34,0.11z"/>
    </g>
    <g>
     <path class="fil9" d="M21.16 17.67c-1.41,1.44 -2.84,2.66 -3.99,4.36 -2.17,3.22 -3.46,7.06 -3.54,10.96 -0.08,3.77 0.88,7.47 1.94,11.11l0.3 1.07c-0.33,0.94 -1.75,1.05 -2.53,0.42 -0.78,-0.63 -0.9,-1.72 -1.26,-2.66 -4.53,-11.89 -0.05,-17.61 4.5,-24.98 0.62,-1.02 1.4,-2.07 2.47,-2.55 0.18,-0.08 0.36,-0.14 0.56,-0.19 0.66,-0.15 1.8,0.1 2.19,0.74 0.59,0.97 0.03,1.04 -0.64,1.72z"/>
     <path class="fil4" d="M11.72 30.73c-0.86,3.3 -0.92,6.93 0.53,10.01 0.54,1.13 1.31,2.21 2.4,2.82 0.31,0.17 0.65,0.31 0.92,0.54l0.3 1.07c-0.33,0.94 -1.75,1.05 -2.53,0.42 -0.78,-0.63 -0.9,-1.72 -1.26,-2.66 -4.53,-11.89 -0.05,-17.61 4.5,-24.98 0.62,-1.02 1.4,-2.07 2.47,-2.55 -0.09,0.29 -0.31,0.54 -0.5,0.84 -1.04,1.63 -1.86,3.42 -2.76,5.13 -1.6,3.01 -3.21,6.06 -4.07,9.36z"/>
     <path class="fil5" d="M13.44 33.66c-1.07,0.45 -2.35,0.41 -3.38,-0.14 -0.23,-0.12 -0.32,-0.41 -0.2,-0.65 0.13,-0.23 0.42,-0.32 0.65,-0.2 0.88,0.47 2,0.45 2.86,-0.04 0.23,-0.13 0.52,-0.05 0.65,0.18 0.13,0.23 0.05,0.52 -0.18,0.65 -0.13,0.08 -0.26,0.14 -0.4,0.2z"/>
     <path class="fil6" d="M13.61 32.16c-0.46,0.18 -0.95,0.25 -1.44,0.21 -0.8,-0.06 -1.56,-0.44 -2.1,-1.02 -0.18,-0.19 -0.17,-0.49 0.02,-0.67 0.19,-0.19 0.5,-0.18 0.68,0.02 0.38,0.41 0.92,0.67 1.48,0.72 0.55,0.04 1.13,-0.13 1.57,-0.47 0.22,-0.16 0.52,-0.12 0.68,0.09 0.16,0.21 0.12,0.51 -0.09,0.67 -0.25,0.19 -0.52,0.34 -0.8,0.45z"/>
     <path class="fil6" d="M13.76 41.92c-0.94,-0.05 -1.86,-0.41 -2.57,-1.02 -0.2,-0.17 -0.22,-0.48 -0.05,-0.68 0.18,-0.2 0.48,-0.22 0.68,-0.05 0.76,0.66 1.85,0.94 2.84,0.74 0.26,-0.05 0.51,0.11 0.57,0.37 0.05,0.26 -0.12,0.52 -0.37,0.57 -0.36,0.07 -0.74,0.1 -1.1,0.07z"/>
     <path class="fil6" d="M12.03 43.01c-0.12,-0.01 -0.25,-0.06 -0.34,-0.17 -0.16,-0.2 -0.14,-0.5 0.07,-0.67 0.91,-0.76 1.58,-1.81 1.9,-2.95 0.07,-0.26 0.33,-0.41 0.58,-0.34 0.26,0.07 0.41,0.34 0.34,0.59 -0.37,1.33 -1.15,2.55 -2.21,3.43 -0.1,0.08 -0.22,0.12 -0.34,0.11z"/>
    </g>
    <path class="fil9" d="M31.77 18.41c1.1,-0.33 1.99,-1.13 2.84,-1.91 1.2,-1.09 2.39,-2.17 3.58,-3.26 0.32,-0.3 0.67,-0.64 0.69,-1.09 0.04,-0.69 -0.75,-1.12 -1.42,-1.28 -2.06,-0.48 -4.32,-0.01 -6.01,1.25 -1.4,1.03 -2.41,2.59 -2.78,4.29 -0.39,1.77 1.61,2.46 3.1,2z"/>
    <path class="fil3" d="M28.98 17.74c0.91,-0.67 1.42,-1.75 1.95,-2.76 0.52,-1.01 1.16,-2.05 2.19,-2.53 0.54,-0.25 1.15,-0.33 1.69,-0.58 0.55,-0.26 1.04,-0.79 0.95,-1.38 -0.06,-0.44 -0.45,-0.79 -0.87,-0.93 -0.43,-0.14 -0.89,-0.11 -1.34,-0.06 -3.63,0.45 -7,2.63 -8.9,5.76 -1.65,2.72 2.54,3.79 4.33,2.48z"/>
    <path class="fil9" d="M23.51 10.82c1.48,-1.93 3.85,-3.13 6.28,-3.18 0.55,-0.01 1.11,0.03 1.6,0.28 0.49,0.25 0.88,0.74 0.88,1.29 0,0.52 -0.34,0.99 -0.76,1.31 -0.41,0.31 -0.91,0.51 -1.36,0.76 -0.91,0.5 -1.69,1.24 -2.25,2.12 -0.51,0.81 -0.83,1.72 -1.26,2.58 -0.43,0.86 -1.02,1.69 -1.87,2.12 -4.47,2.27 -2.51,-5.64 -1.26,-7.28z"/>
    <path class="fil3" d="M21.21 11.55c1.51,-1.91 3.82,-3.95 6.2,-3.49 1.01,0.36 0.21,2.34 -0.28,2.73 -0.5,0.38 -1.13,0.54 -1.73,0.7 -0.61,0.16 -1.24,0.35 -1.69,0.78 -0.65,0.61 -0.82,1.57 -0.88,2.46 -0.05,0.89 -0.05,1.83 -0.48,2.61 -1.14,2.11 -2.39,0.59 -2.53,-1 -0.16,-1.7 0.33,-3.46 1.39,-4.79z"/>
   </g>
  </g>
 </g>
</svg>
