<svg xmlns="http://www.w3.org/2000/svg" xmlns:xlink="http://www.w3.org/1999/xlink"><symbol id="cross-mark" viewBox="0 0 128 128"><g style="-ms-transform:rotate(360deg);-webkit-transform:rotate(360deg);transform:rotate(360deg)"><path style="fill-rule:nonzero;fill:#ccc;fill-opacity:.5" d="m58.9 78.6-41.3 41.9c-1.5 1.5-3.2 2.5-5 3 4.1 1.2 8.6.2 11.8-3l38.2-38.1c.8-.8 2.1-.8 2.8 0l-3.7-3.8c-.7-.8-2-.8-2.8 0zm23.4-13.2c-.8-.8-.8-2 0-2.8l38.2-38.1c4.7-4.7 4.7-12.3 0-17s-12.2-4.7-16.9 0L65.4 45.6c-.8.8-2 .8-2.8 0L24.5 7.5c-4.7-4.7-12.3-4.7-17 0-.4.4-.7.8-1 1.2.2-.3.4-.5.6-.7 4.7-4.6 10.1-2.5 14.8 2.2l37.6 38.5c.8.8 2 .8 2.8 0l39.3-39.2c4.7-4.7 9.4-5.1 14.1-.4s3.9 9.6-.8 14.3L75.6 62.6c-.8.8-.8 2 0 2.8 0 0 38.1 38.2 38 38.2 4.7 4.7 6.5 10 1.8 14.7s-10.6 3.5-15.3-1.1l3.4 3.4c4.7 4.7 12.3 4.7 17 0s4.7-12.2 0-16.9c0-.1-38.2-38.3-38.2-38.3z" transform="rotate(180 64 64)"/><path style="fill-rule:nonzero;fill:#ccc;fill-opacity:1" d="M115.4 118.3c4.7-4.7 2.9-10-1.8-14.7.1 0-38-38.2-38-38.2-.8-.8-.8-2 0-2.8l39.3-39.2c4.7-4.7 5.5-9.6.8-14.3s-9.4-4.3-14.1.4L62.3 48.7c-.8.8-2 .8-2.8 0L21.9 10.2C17.2 5.5 11.8 3.4 7.1 8c-.2.2-.4.4-.6.7-3.7 4.7-3.3 11.4 1 15.7l38.1 38.2c.8.8.8 2.1 0 2.8L7.5 103.5c-4.7 4.7-4.7 12.3 0 17 1.5 1.5 3.2 2.5 5 3 1.8-.6 3.6-1.6 5-3l41.3-41.9c.8-.8 2.1-.8 2.8 0l3.7 3.8 34.7 34.8c4.8 4.6 10.7 5.8 15.4 1.1z" transform="rotate(180 64 64)"/><g fill="#FFF" transform="rotate(180 64 64)"><path d="M55 56.4c-1.1-1.6-32.3-33.1-32.3-33.1s-2.3-2.6-4.7-.8c-2.2 1.7-1.1 4.3.1 5.6s29 29.7 30.4 30.9c1.3 1.2 3.9 1.4 5.5.6s1.8-2.1 1-3.2z" opacity=".2"/><circle cx="12.2" cy="19" r="3.3" opacity=".2"/></g><path fill="#FFF" d="M55.9 46.2c-1.1-1.6-32.8-32.6-32.8-32.6s-2.3-2.6-4.7-.7c-2.2 1.7-1 4.3.2 5.6C19.8 19.8 48 47.8 49.4 49c1.3 1.2 3.9 1.3 5.5.5s1.8-2.2 1-3.3z" opacity=".2"/></g></symbol><symbol id="direction-mobile" viewBox="0 0 23.92 12.26"><g style="shape-rendering:geometricPrecision;text-rendering:geometricPrecision;image-rendering:optimizeQuality;fill-rule:evenodd;clip-rule:evenodd"><path stroke="#f9d24a" fill="#292A30" stroke-width="1.21" stroke-miterlimit="22.926" d="M7.31.38c4.81 6.02 6.61 7.67 14.38 10.44C13.1 12.61 7.14 11.48.3 7.61"/></g></symbol><symbol id="direction" viewBox="0 0 23.92 12.26"><g style="shape-rendering:geometricPrecision;text-rendering:geometricPrecision;image-rendering:optimizeQuality;fill-rule:evenodd;clip-rule:evenodd"><path stroke="#f9d24a" fill="#292A30" stroke-width="1.21" stroke-miterlimit="22.926" d="M7.31.38c4.81 6.02 6.61 7.67 14.38 10.44C13.1 12.61 7.14 11.48.3 7.61"/></g></symbol><symbol id="facebook"><g fill="none"><path fill-rule="evenodd" clip-rule="evenodd" d="M0 12.067C0 18.033 4.333 22.994 10 24v-8.667H7V12h3V9.333c0-3 1.933-4.666 4.667-4.666.866 0 1.8.133 2.666.266V8H15.8c-1.467 0-1.8.733-1.8 1.667V12h3.2l-.533 3.333H14V24c5.667-1.006 10-5.966 10-11.933C24 5.43 18.6 0 12 0S0 5.43 0 12.067Z" fill="#fff"/></g></symbol><symbol id="file-pdf" viewBox="0 0 256 256"><g style="-ms-transform:rotate(360deg);-webkit-transform:rotate(360deg);transform:rotate(360deg)"><path d="M48 132a4 4 0 0 0 4-4V40a4 4 0 0 1 4-4h92v52a4 4 0 0 0 4 4h52v36a4 4 0 0 0 8 0V88.1a4.5 4.5 0 0 0-1.2-2.9l-56-55.9A3.6 3.6 0 0 0 152 28H56a12 12 0 0 0-12 12v88a4 4 0 0 0 4 4Zm108-90.3L198.3 84H156ZM64 164H48a4 4 0 0 0-4 4v48a4 4 0 0 0 8 0v-12h12a20 20 0 0 0 0-40Zm0 32H52v-24h12a12 12 0 0 1 0 24Zm156-28a4 4 0 0 1-4 4h-24v20h20a4 4 0 0 1 0 8h-20v16a4 4 0 0 1-8 0v-48a4 4 0 0 1 4-4h28a4 4 0 0 1 4 4Zm-92-4h-14a4 4 0 0 0-4 4v48a4 4 0 0 0 4 4h14a28 28 0 0 0 0-56Zm0 48h-10v-40h10a20 20 0 0 1 0 40Z"/></g></symbol><symbol id="github"><g fill="none"><path fill-rule="evenodd" clip-rule="evenodd" d="M12 0C5.37 0 0 5.37 0 12c0 5.31 3.435 9.795 8.205 11.385.6.105.825-.255.825-.57 0-.285-.015-1.23-.015-2.235-3.015.555-3.795-.735-4.035-1.41-.135-.345-.72-1.41-1.23-1.695-.42-.225-1.02-.78-.015-.795.945-.015 1.62.87 1.845 1.23 1.08 1.815 2.805 1.305 3.495.99.105-.78.42-1.305.765-1.605-2.67-.3-5.46-1.335-5.46-5.925 0-1.305.465-2.385 1.23-3.225-.12-.3-.54-1.53.12-3.18 0 0 1.005-.315 3.3 1.23.96-.27 1.98-.405 3-.405s2.04.135 3 .405c2.295-1.56 3.3-1.23 3.3-1.23.66 1.65.24 2.88.12 3.18.765.84 1.23 1.905 1.23 3.225 0 4.605-2.805 5.625-5.475 5.925.435.375.81 1.095.81 2.22 0 1.605-.015 2.895-.015 3.3 0 .315.225.69.825.57A12.02 12.02 0 0 0 24 12c0-6.63-5.37-12-12-12Z" fill="#fff"/></g></symbol><symbol id="instagram"><g fill="none"><path fill-rule="evenodd" clip-rule="evenodd" d="M6.465.066C7.638.012 8.012 0 11 0c2.988 0 3.362.013 4.534.066 1.172.053 1.972.24 2.672.511.733.277 1.398.71 1.948 1.27.56.549.992 1.213 1.268 1.947.272.7.458 1.5.512 2.67C21.988 7.639 22 8.013 22 11c0 2.988-.013 3.362-.066 4.535-.053 1.17-.24 1.97-.512 2.67a5.396 5.396 0 0 1-1.268 1.949c-.55.56-1.215.992-1.948 1.268-.7.272-1.5.458-2.67.512-1.174.054-1.548.066-4.536.066-2.988 0-3.362-.013-4.535-.066-1.17-.053-1.97-.24-2.67-.512a5.396 5.396 0 0 1-1.949-1.268 5.392 5.392 0 0 1-1.269-1.948c-.271-.7-.457-1.5-.511-2.67C.012 14.361 0 13.987 0 11c0-2.988.013-3.362.066-4.534.053-1.172.24-1.972.511-2.672a5.396 5.396 0 0 1 1.27-1.948A5.392 5.392 0 0 1 3.794.577c.7-.271 1.5-.457 2.67-.511h.001Zm8.98 1.98c-1.16-.053-1.508-.064-4.445-.064-2.937 0-3.285.011-4.445.064-1.073.049-1.655.228-2.043.379-.513.2-.88.437-1.265.822a3.412 3.412 0 0 0-.822 1.265c-.151.388-.33.97-.379 2.043-.053 1.16-.064 1.508-.064 4.445 0 2.937.011 3.285.064 4.445.049 1.073.228 1.655.379 2.043.176.477.457.91.822 1.265.355.365.788.646 1.265.822.388.151.97.33 2.043.379 1.16.053 1.507.064 4.445.064 2.938 0 3.285-.011 4.445-.064 1.073-.049 1.655-.228 2.043-.379.513-.2.88-.437 1.265-.822.365-.355.646-.788.822-1.265.151-.388.33-.97.379-2.043.053-1.16.064-1.508.064-4.445 0-2.937-.011-3.285-.064-4.445-.049-1.073-.228-1.655-.379-2.043-.2-.513-.437-.88-.822-1.265a3.413 3.413 0 0 0-1.265-.822c-.388-.151-.97-.33-2.043-.379Zm-5.85 12.345a3.67 3.67 0 1 0 2.641-6.846 3.67 3.67 0 0 0-2.641 6.846ZM7.002 7.002a5.654 5.654 0 1 1 7.996 7.996 5.654 5.654 0 0 1-7.996-7.996Zm10.906-.814a1.336 1.336 0 1 0-1.834-1.944 1.336 1.336 0 0 0 1.834 1.944Z" fill="#fff"/></g></symbol><symbol id="linkedIn"><g fill="none"><path fill-rule="evenodd" clip-rule="evenodd" d="M0 1.838A1.838 1.838 0 0 1 1.838 0H20.16A1.836 1.836 0 0 1 22 1.838V20.16A1.838 1.838 0 0 1 20.161 22H1.838A1.839 1.839 0 0 1 0 20.161V1.838Zm8.708 6.55h2.979v1.496c.43-.86 1.53-1.634 3.183-1.634 3.169 0 3.92 1.713 3.92 4.856v5.822h-3.207v-5.106c0-1.79-.43-2.8-1.522-2.8-1.515 0-2.145 1.089-2.145 2.8v5.106H8.708V8.388Zm-5.5 10.403h3.208V8.25H3.208V18.791ZM6.875 4.812a2.063 2.063 0 1 1-4.125.09 2.063 2.063 0 0 1 4.125-.09Z" fill="#fff"/></g></symbol><symbol id="location-indicator-red" viewBox="0 0 72 72"><path fill="#d22f27" d="M52.573 29.11c0-9.315-7.133-16.892-15.903-16.892s-15.904 7.577-15.904 16.896c.003.465.224 11.609 12.962 31.245a3.463 3.463 0 0 0 2.817 1.934c1.84 0 3.094-2.026 3.216-2.232C52.58 40.413 52.58 29.553 52.573 29.11ZM36.67 35.913a7.083 7.083 0 1 1 7.083-7.082 7.09 7.09 0 0 1-7.083 7.082Z"/><path fill="#ea5a47" d="M52.573 29.11c0-9.315-7.133-16.892-15.903-16.892a14.96 14.96 0 0 0-3.865.525c8.395.45 15.1 7.823 15.1 16.85.006.443.006 11.303-12.813 30.95a5.854 5.854 0 0 1-.586.797 2.855 2.855 0 0 0 2.04.954c1.839 0 3.093-2.027 3.215-2.233C52.58 40.413 52.58 29.553 52.573 29.11Z"/><g fill="none" stroke="#000" stroke-linecap="round" stroke-linejoin="round" stroke-width="2"><path d="M36.545 62.294a3.463 3.463 0 0 1-2.817-1.935C20.99 40.723 20.769 29.58 20.766 29.114c0-9.32 7.134-16.896 15.904-16.896s15.903 7.577 15.903 16.892c.007.444.007 11.304-12.812 30.95-.122.207-1.377 2.233-3.216 2.233Z"/><path d="M36.67 35.913a7.083 7.083 0 1 1 7.083-7.082 7.09 7.09 0 0 1-7.083 7.082Z"/></g></symbol><symbol id="mail"><g fill="none"><path d="M0 6.076V16a4 4 0 0 0 4 4h16a4 4 0 0 0 4-4V4a4 4 0 0 0-4-4H4a4 4 0 0 0-4 4v2.076ZM4 2h16a2 2 0 0 1 2 2v1.48l-10 5.384L2 5.48V4a2 2 0 0 1 2-2ZM2 7.752l9.526 5.128a1 1 0 0 0 .948 0L22 7.752V16a2 2 0 0 1-2 2H4a2 2 0 0 1-2-2V7.752Z" fill="#fff"/></g></symbol><symbol id="menu" viewBox="0 0 96 96"><path style="stroke:none;fill-rule:nonzero;fill:#ccc;fill-opacity:1" d="M0 48C0 21.492 21.492 0 48 0s48 21.492 48 48-21.492 48-48 48S0 74.508 0 48Zm48 44.16c24.39 0 44.16-19.77 44.16-44.16C92.16 23.61 72.39 3.84 48 3.84 23.61 3.84 3.84 23.61 3.84 48c0 24.39 19.77 44.16 44.16 44.16Zm0 0"/><path style="stroke:none;fill-rule:nonzero;fill:#c1c0c0;fill-opacity:1" d="M22.3 28.012a2.854 2.854 0 0 0-2.508 4.293 2.853 2.853 0 0 0 2.509 1.418h51.398a2.853 2.853 0 0 0 2.508-1.418 2.854 2.854 0 0 0-2.508-4.293Zm0 17.133a2.858 2.858 0 0 0-2.507 4.296 2.858 2.858 0 0 0 2.508 1.414h51.398a2.858 2.858 0 0 0 2.508-4.296 2.858 2.858 0 0 0-2.508-1.414Zm0 17.132a2.853 2.853 0 0 0-2.507 1.418 2.854 2.854 0 0 0 2.508 4.293h51.398a2.854 2.854 0 0 0 2.508-4.293 2.853 2.853 0 0 0-2.508-1.418Zm0 0"/></symbol><symbol id="x-circle" viewBox="0 0 512 512"><g style="-ms-transform:rotate(360deg);-webkit-transform:rotate(360deg);transform:rotate(360deg)"><g fill="#C1C0C0"><path d="m370.698 348.071-87.763-87.763 87.763-87.763-22.627-22.628-87.763 87.764-87.764-87.764-22.627 22.628 87.763 87.763-87.763 87.763 22.627 22.628 87.764-87.764 87.763 87.764 22.627-22.628z"/><path d="M425.706 425.706A240 240 0 0 0 86.294 86.294a240 240 0 0 0 339.412 339.412ZM48 256c0-114.691 93.309-208 208-208s208 93.309 208 208-93.309 208-208 208S48 370.691 48 256Z"/></g></g></symbol></svg>