<svg xmlns="http://www.w3.org/2000/svg" xmlns:xlink="http://www.w3.org/1999/xlink"><symbol id="facebook" viewBox="0 0 24 24">
<path fill-rule="evenodd" clip-rule="evenodd" d="M0 12.067C0 18.033 4.333 22.994 10 24V15.333H7V12H10V9.333C10 6.333 11.933 4.667 14.667 4.667C15.533 4.667 16.467 4.8 17.333 4.933V8H15.8C14.333 8 14 8.733 14 9.667V12H17.2L16.667 15.333H14V24C19.667 22.994 24 18.034 24 12.067C24 5.43 18.6 0 12 0C5.4 0 0 5.43 0 12.067Z" fill="white"/>
</symbol><symbol id="github" viewBox="0 0 24 24">
<path fill-rule="evenodd" clip-rule="evenodd" d="M12 0C5.37 0 0 5.37 0 12C0 17.31 3.435 21.795 8.205 23.385C8.805 23.49 9.03 23.13 9.03 22.815C9.03 22.53 9.015 21.585 9.015 20.58C6 21.135 5.22 19.845 4.98 19.17C4.845 18.825 4.26 17.76 3.75 17.475C3.33 17.25 2.73 16.695 3.735 16.68C4.68 16.665 5.355 17.55 5.58 17.91C6.66 19.725 8.385 19.215 9.075 18.9C9.18 18.12 9.495 17.595 9.84 17.295C7.17 16.995 4.38 15.96 4.38 11.37C4.38 10.065 4.845 8.985 5.61 8.145C5.49 7.845 5.07 6.615 5.73 4.965C5.73 4.965 6.735 4.65 9.03 6.195C9.99 5.925 11.01 5.79 12.03 5.79C13.05 5.79 14.07 5.925 15.03 6.195C17.325 4.635 18.33 4.965 18.33 4.965C18.99 6.615 18.57 7.845 18.45 8.145C19.215 8.985 19.68 10.05 19.68 11.37C19.68 15.975 16.875 16.995 14.205 17.295C14.64 17.67 15.015 18.39 15.015 19.515C15.015 21.12 15 22.41 15 22.815C15 23.13 15.225 23.505 15.825 23.385C18.2072 22.5807 20.2772 21.0497 21.7437 19.0074C23.2101 16.965 23.9993 14.5143 24 12C24 5.37 18.63 0 12 0Z" fill="white"/>
</symbol><symbol id="instagram" viewBox="0 0 22 22">
<path fill-rule="evenodd" clip-rule="evenodd" d="M6.465 0.066C7.638 0.012 8.012 0 11 0C13.988 0 14.362 0.013 15.534 0.066C16.706 0.119 17.506 0.306 18.206 0.577C18.939 0.854 19.604 1.287 20.154 1.847C20.714 2.396 21.146 3.06 21.422 3.794C21.694 4.494 21.88 5.294 21.934 6.464C21.988 7.639 22 8.013 22 11C22 13.988 21.987 14.362 21.934 15.535C21.881 16.705 21.694 17.505 21.422 18.205C21.146 18.9391 20.7133 19.6042 20.154 20.154C19.604 20.714 18.939 21.146 18.206 21.422C17.506 21.694 16.706 21.88 15.536 21.934C14.362 21.988 13.988 22 11 22C8.012 22 7.638 21.987 6.465 21.934C5.295 21.881 4.495 21.694 3.795 21.422C3.06092 21.146 2.39582 20.7133 1.846 20.154C1.28638 19.6047 0.853315 18.9399 0.577 18.206C0.306 17.506 0.12 16.706 0.066 15.536C0.012 14.361 0 13.987 0 11C0 8.012 0.013 7.638 0.066 6.466C0.119 5.294 0.306 4.494 0.577 3.794C0.853723 3.06008 1.28712 2.39531 1.847 1.846C2.39604 1.2865 3.06047 0.853443 3.794 0.577C4.494 0.306 5.294 0.12 6.464 0.066H6.465ZM15.445 2.046C14.285 1.993 13.937 1.982 11 1.982C8.063 1.982 7.715 1.993 6.555 2.046C5.482 2.095 4.9 2.274 4.512 2.425C3.999 2.625 3.632 2.862 3.247 3.247C2.88205 3.60205 2.60118 4.03428 2.425 4.512C2.274 4.9 2.095 5.482 2.046 6.555C1.993 7.715 1.982 8.063 1.982 11C1.982 13.937 1.993 14.285 2.046 15.445C2.095 16.518 2.274 17.1 2.425 17.488C2.601 17.965 2.882 18.398 3.247 18.753C3.602 19.118 4.035 19.399 4.512 19.575C4.9 19.726 5.482 19.905 6.555 19.954C7.715 20.007 8.062 20.018 11 20.018C13.938 20.018 14.285 20.007 15.445 19.954C16.518 19.905 17.1 19.726 17.488 19.575C18.001 19.375 18.368 19.138 18.753 18.753C19.118 18.398 19.399 17.965 19.575 17.488C19.726 17.1 19.905 16.518 19.954 15.445C20.007 14.285 20.018 13.937 20.018 11C20.018 8.063 20.007 7.715 19.954 6.555C19.905 5.482 19.726 4.9 19.575 4.512C19.375 3.999 19.138 3.632 18.753 3.247C18.3979 2.88207 17.9657 2.60121 17.488 2.425C17.1 2.274 16.518 2.095 15.445 2.046ZM9.595 14.391C10.3797 14.7176 11.2534 14.7617 12.0669 14.5157C12.8805 14.2697 13.5834 13.7489 14.0556 13.0422C14.5278 12.3356 14.7401 11.4869 14.656 10.6411C14.572 9.79534 14.197 9.00497 13.595 8.405C13.2112 8.02148 12.7472 7.72781 12.2363 7.54515C11.7255 7.36248 11.1804 7.29536 10.6405 7.34862C10.1006 7.40187 9.57915 7.57418 9.1138 7.85313C8.64845 8.13208 8.25074 8.51074 7.9493 8.96185C7.64786 9.41296 7.45019 9.92529 7.37052 10.462C7.29084 10.9986 7.33115 11.5463 7.48854 12.0655C7.64593 12.5847 7.91648 13.0626 8.28072 13.4647C8.64496 13.8668 9.09382 14.1832 9.595 14.391ZM7.002 7.002C7.52702 6.47697 8.15032 6.0605 8.8363 5.77636C9.52228 5.49222 10.2575 5.34597 11 5.34597C11.7425 5.34597 12.4777 5.49222 13.1637 5.77636C13.8497 6.0605 14.473 6.47697 14.998 7.002C15.523 7.52702 15.9395 8.15032 16.2236 8.8363C16.5078 9.52228 16.654 10.2575 16.654 11C16.654 11.7425 16.5078 12.4777 16.2236 13.1637C15.9395 13.8497 15.523 14.473 14.998 14.998C13.9377 16.0583 12.4995 16.654 11 16.654C9.50046 16.654 8.06234 16.0583 7.002 14.998C5.94166 13.9377 5.34597 12.4995 5.34597 11C5.34597 9.50046 5.94166 8.06234 7.002 7.002ZM17.908 6.188C18.0381 6.06527 18.1423 5.91768 18.2143 5.75397C18.2863 5.59027 18.3248 5.41377 18.3274 5.23493C18.33 5.05609 18.2967 4.87855 18.2295 4.71281C18.1622 4.54707 18.0624 4.39651 17.936 4.27004C17.8095 4.14357 17.6589 4.04376 17.4932 3.97652C17.3275 3.90928 17.1499 3.87598 16.9711 3.87858C16.7922 3.88119 16.6157 3.91965 16.452 3.9917C16.2883 4.06374 16.1407 4.1679 16.018 4.298C15.7793 4.55103 15.6486 4.88712 15.6537 5.23493C15.6588 5.58274 15.7992 5.91488 16.0452 6.16084C16.2911 6.40681 16.6233 6.54723 16.9711 6.5523C17.3189 6.55737 17.655 6.42669 17.908 6.188Z" fill="white"/>
</symbol><symbol id="linkedIn" viewBox="0 0 22 22">
<path fill-rule="evenodd" clip-rule="evenodd" d="M2.7206e-07 1.838C2.7206e-07 1.35053 0.193646 0.883032 0.538338 0.53834C0.88303 0.193648 1.35053 2.45031e-06 1.838 2.45031e-06H20.16C20.4016 -0.000392101 20.6409 0.0468654 20.8641 0.139069C21.0874 0.231273 21.2903 0.366612 21.4612 0.537339C21.6322 0.708065 21.7677 0.910826 21.8602 1.13401C21.9526 1.3572 22.0001 1.59643 22 1.838V20.16C22.0003 20.4016 21.9529 20.6409 21.8606 20.8642C21.7683 21.0875 21.6328 21.2904 21.462 21.4613C21.2912 21.6322 21.0884 21.7678 20.8651 21.8602C20.6419 21.9526 20.4026 22.0001 20.161 22H1.838C1.59655 22 1.35746 21.9524 1.1344 21.86C0.911335 21.7676 0.708671 21.6321 0.537984 21.4613C0.367297 21.2905 0.231932 21.0878 0.139623 20.8647C0.0473133 20.6416 -0.000131096 20.4025 2.7206e-07 20.161V1.838ZM8.708 8.388H11.687V9.884C12.117 9.024 13.217 8.25 14.87 8.25C18.039 8.25 18.79 9.963 18.79 13.106V18.928H15.583V13.822C15.583 12.032 15.153 11.022 14.061 11.022C12.546 11.022 11.916 12.111 11.916 13.822V18.928H8.708V8.388ZM3.208 18.791H6.416V8.25H3.208V18.79V18.791ZM6.875 4.812C6.88105 5.08668 6.83217 5.35979 6.73124 5.61532C6.63031 5.87084 6.47935 6.10364 6.28723 6.30003C6.09511 6.49643 5.8657 6.65248 5.61246 6.75901C5.35921 6.86554 5.08724 6.92042 4.8125 6.92042C4.53776 6.92042 4.26579 6.86554 4.01255 6.75901C3.7593 6.65248 3.52989 6.49643 3.33777 6.30003C3.14565 6.10364 2.99469 5.87084 2.89376 5.61532C2.79283 5.35979 2.74395 5.08668 2.75 4.812C2.76187 4.27286 2.98439 3.75979 3.36989 3.38269C3.75539 3.00558 4.27322 2.79442 4.8125 2.79442C5.35178 2.79442 5.86961 3.00558 6.25512 3.38269C6.64062 3.75979 6.86313 4.27286 6.875 4.812Z" fill="white"/>
</symbol><symbol id="mail" viewBox="0 0 24 20">
<path d="M0 6.076V16C0 17.0609 0.421427 18.0783 1.17157 18.8284C1.92172 19.5786 2.93913 20 4 20H20C21.0609 20 22.0783 19.5786 22.8284 18.8284C23.5786 18.0783 24 17.0609 24 16V4C24 2.93913 23.5786 1.92172 22.8284 1.17157C22.0783 0.421427 21.0609 0 20 0H4C2.93913 0 1.92172 0.421427 1.17157 1.17157C0.421427 1.92172 0 2.93913 0 4V6.076ZM4 2H20C20.5304 2 21.0391 2.21071 21.4142 2.58579C21.7893 2.96086 22 3.46957 22 4V5.48L12 10.864L2 5.48V4C2 3.46957 2.21071 2.96086 2.58579 2.58579C2.96086 2.21071 3.46957 2 4 2ZM2 7.752L11.526 12.88C11.6717 12.9584 11.8345 12.9995 12 12.9995C12.1655 12.9995 12.3283 12.9584 12.474 12.88L22 7.752V16C22 16.5304 21.7893 17.0391 21.4142 17.4142C21.0391 17.7893 20.5304 18 20 18H4C3.46957 18 2.96086 17.7893 2.58579 17.4142C2.21071 17.0391 2 16.5304 2 16V7.752Z" fill="white"/>
</symbol><symbol id="menu" viewBox="0 0 96 96">
<g id="surface1624">
<path style=" stroke:none;fill-rule:nonzero;fill:rgb(80%,80%,80%);fill-opacity:1;" d="M 0 48 C 0 21.492188 21.492188 0 48 0 C 74.507812 0 96 21.492188 96 48 C 96 74.507812 74.507812 96 48 96 C 21.492188 96 0 74.507812 0 48 Z M 48 92.160156 C 72.390625 92.160156 92.160156 72.390625 92.160156 48 C 92.160156 23.609375 72.390625 3.839844 48 3.839844 C 23.609375 3.839844 3.839844 23.609375 3.839844 48 C 3.839844 72.390625 23.609375 92.160156 48 92.160156 Z M 48 92.160156 "/>
<path style=" stroke:none;fill-rule:nonzero;fill:rgb(75.686275%,75.294118%,75.294118%);fill-opacity:1;" d="M 22.300781 28.011719 C 21.269531 27.996094 20.3125 28.539062 19.792969 29.425781 C 19.273438 30.316406 19.273438 31.417969 19.792969 32.304688 C 20.3125 33.195312 21.269531 33.738281 22.300781 33.722656 L 73.699219 33.722656 C 74.730469 33.738281 75.6875 33.195312 76.207031 32.304688 C 76.726562 31.417969 76.726562 30.316406 76.207031 29.425781 C 75.6875 28.539062 74.730469 27.996094 73.699219 28.011719 Z M 22.300781 45.144531 C 21.269531 45.128906 20.3125 45.671875 19.792969 46.558594 C 19.273438 47.449219 19.273438 48.550781 19.792969 49.441406 C 20.3125 50.328125 21.269531 50.871094 22.300781 50.855469 L 73.699219 50.855469 C 74.730469 50.871094 75.6875 50.328125 76.207031 49.441406 C 76.726562 48.550781 76.726562 47.449219 76.207031 46.558594 C 75.6875 45.671875 74.730469 45.128906 73.699219 45.144531 Z M 22.300781 62.277344 C 21.269531 62.261719 20.3125 62.804688 19.792969 63.695312 C 19.273438 64.582031 19.273438 65.683594 19.792969 66.574219 C 20.3125 67.460938 21.269531 68.003906 22.300781 67.988281 L 73.699219 67.988281 C 74.730469 68.003906 75.6875 67.460938 76.207031 66.574219 C 76.726562 65.683594 76.726562 64.582031 76.207031 63.695312 C 75.6875 62.804688 74.730469 62.261719 73.699219 62.277344 Z M 22.300781 62.277344 "/>
</g>
</symbol><symbol id="x-circle" viewBox="0 0 512 512" preserveAspectRatio="xMidYMid meet"><g transform="rotate(90 256 256)"><path fill="rgb(193.00000124999997, 192.00000089999997, 192.00000089999997)" d="m348.071 141.302l-87.763 87.763l-87.763-87.763l-22.628 22.627l87.764 87.763l-87.764 87.764l22.628 22.627l87.763-87.763l87.763 87.763l22.628-22.627l-87.764-87.764l87.764-87.763l-22.628-22.627z"/><path fill="rgb(193.00000124999997, 192.00000089999997, 192.00000089999997)" d="M425.706 86.294A240 240 0 0 0 86.294 425.706A240 240 0 0 0 425.706 86.294ZM256 464c-114.691 0-208-93.309-208-208S141.309 48 256 48s208 93.309 208 208s-93.309 208-208 208Z"/></g></symbol></svg>