<svg xmlns="http://www.w3.org/2000/svg" width="40" height="40" viewBox="0 0 256 256" style="-ms-transform:rotate(360deg);-webkit-transform:rotate(360deg);transform:rotate(360deg)"><path d="M48 132a4 4 0 0 0 4-4V40a4 4 0 0 1 4-4h92v52a4 4 0 0 0 4 4h52v36a4 4 0 0 0 8 0V88.1a4.5 4.5 0 0 0-1.2-2.9l-56-55.9A3.6 3.6 0 0 0 152 28H56a12 12 0 0 0-12 12v88a4 4 0 0 0 4 4Zm108-90.3L198.3 84H156ZM64 164H48a4 4 0 0 0-4 4v48a4 4 0 0 0 8 0v-12h12a20 20 0 0 0 0-40Zm0 32H52v-24h12a12 12 0 0 1 0 24Zm156-28a4 4 0 0 1-4 4h-24v20h20a4 4 0 0 1 0 8h-20v16a4 4 0 0 1-8 0v-48a4 4 0 0 1 4-4h28a4 4 0 0 1 4 4Zm-92-4h-14a4 4 0 0 0-4 4v48a4 4 0 0 0 4 4h14a28 28 0 0 0 0-56Zm0 48h-10v-40h10a20 20 0 0 1 0 40Z"/></svg>