<svg xmlns="http://www.w3.org/2000/svg" width="128" height="128" viewBox="0 0 96 96"><path style="stroke:none;fill-rule:nonzero;fill:#ccc;fill-opacity:1" d="M0 48C0 21.492 21.492 0 48 0s48 21.492 48 48-21.492 48-48 48S0 74.508 0 48Zm48 44.16c24.39 0 44.16-19.77 44.16-44.16C92.16 23.61 72.39 3.84 48 3.84 23.61 3.84 3.84 23.61 3.84 48c0 24.39 19.77 44.16 44.16 44.16Zm0 0"/><path style="stroke:none;fill-rule:nonzero;fill:#c1c0c0;fill-opacity:1" d="M22.3 28.012a2.854 2.854 0 0 0-2.508 4.293 2.853 2.853 0 0 0 2.509 1.418h51.398a2.853 2.853 0 0 0 2.508-1.418 2.854 2.854 0 0 0-2.508-4.293Zm0 17.133a2.858 2.858 0 0 0-2.507 4.296 2.858 2.858 0 0 0 2.508 1.414h51.398a2.858 2.858 0 0 0 2.508-4.296 2.858 2.858 0 0 0-2.508-1.414Zm0 17.132a2.853 2.853 0 0 0-2.507 1.418 2.854 2.854 0 0 0 2.508 4.293h51.398a2.854 2.854 0 0 0 2.508-4.293 2.853 2.853 0 0 0-2.508-1.418Zm0 0"/></svg>