<svg xmlns="http://www.w3.org/2000/svg" width="48" height="48" viewBox="0 0 512 512" style="-ms-transform:rotate(360deg);-webkit-transform:rotate(360deg);transform:rotate(360deg)"><g fill="#C1C0C0"><path d="m370.698 348.071-87.763-87.763 87.763-87.763-22.627-22.628-87.763 87.764-87.764-87.764-22.627 22.628 87.763 87.763-87.763 87.763 22.627 22.628 87.764-87.764 87.763 87.764 22.627-22.628z"/><path d="M425.706 425.706A240 240 0 0 0 86.294 86.294a240 240 0 0 0 339.412 339.412ZM48 256c0-114.691 93.309-208 208-208s208 93.309 208 208-93.309 208-208 208S48 370.691 48 256Z"/></g></svg>