<svg xmlns="http://www.w3.org/2000/svg" xmlns:xlink="http://www.w3.org/1999/xlink" width="48" height="48" preserveAspectRatio="xMidYMid meet" viewBox="0 0 512 512" style="-ms-transform: rotate(360deg); -webkit-transform: rotate(360deg); transform: rotate(360deg);"><g transform="rotate(90 256 256)"><path fill="rgb(193.00000124999997, 192.00000089999997, 192.00000089999997)" d="m348.071 141.302l-87.763 87.763l-87.763-87.763l-22.628 22.627l87.764 87.763l-87.764 87.764l22.628 22.627l87.763-87.763l87.763 87.763l22.628-22.627l-87.764-87.764l87.764-87.763l-22.628-22.627z"/><path fill="rgb(193.00000124999997, 192.00000089999997, 192.00000089999997)" d="M425.706 86.294A240 240 0 0 0 86.294 425.706A240 240 0 0 0 425.706 86.294ZM256 464c-114.691 0-208-93.309-208-208S141.309 48 256 48s208 93.309 208 208s-93.309 208-208 208Z"/></g></svg>