<svg xmlns="http://www.w3.org/2000/svg" xml:space="preserve" width="250" height="250" style="shape-rendering:geometricPrecision;text-rendering:geometricPrecision;image-rendering:optimizeQuality;fill-rule:evenodd;clip-rule:evenodd" viewBox="0 0 55.69 55.7"><defs><style>.fil13,.fil9{fill:#1c1d1d;fill-rule:nonzero}.fil9{fill:#380f2a}.fil3,.fil4,.fil6{fill:#490f2f;fill-rule:nonzero}.fil4,.fil6{fill:#5e1134}.fil6{fill:#748aaf}.fil11,.fil7,.fil8{fill:#b54b56;fill-rule:nonzero}.fil7,.fil8{fill:#e97c6e}.fil8{fill:#f2a080}.fil10,.fil2,.fil5{fill:#f69728;fill-rule:nonzero}.fil10,.fil2{fill:#f6aa52}.fil10{fill:#f7bf91}</style></defs><g id="Layer_x0020_1"><g id="_105553117390464"><path style="fill:none" d="M0 0h55.69v55.69H0z"/><path d="M55.69 27.84c0 15.38-12.47 27.85-27.85 27.85C12.47 55.69 0 43.22 0 27.84 0 12.47 12.47 0 27.84 0c15.38 0 27.85 12.47 27.85 27.84z" style="fill:#f4ddc3;fill-rule:nonzero"/><path class="fil2" d="m6.72 21.6.25-.79.25.79c.28.86.87 1.58 1.66 2.01-.79.43-1.38 1.15-1.66 2.01l-.25.79-.25-.79c-.27-.86-.86-1.58-1.65-2.01.79-.43 1.38-1.15 1.65-2.01zM45.93 34.33l.25-.79.25.79c.27.86.86 1.58 1.65 2.01-.79.43-1.38 1.15-1.65 2.01l-.25.79-.25-.79c-.27-.86-.87-1.58-1.66-2.01.79-.43 1.39-1.15 1.66-2.01zM45.3 14.75l.16-.52.17.52c.18.56.57 1.03 1.09 1.32-.52.28-.91.75-1.09 1.32l-.17.51-.16-.51a2.27 2.27 0 0 0-1.09-1.32c.52-.29.91-.76 1.09-1.32zM12.35 29.64l.16-.52.16.52a2.3 2.3 0 0 0 1.09 1.32c-.52.29-.91.76-1.09 1.32l-.16.52-.16-.52c-.18-.56-.57-1.03-1.09-1.32a2.3 2.3 0 0 0 1.09-1.32zM10.62 14.03l.16-.51.17.51c.18.57.57 1.04 1.08 1.32-.51.29-.9.76-1.08 1.32l-.17.52-.16-.52c-.18-.56-.57-1.03-1.09-1.32.52-.28.91-.75 1.09-1.32z"/><path class="fil3" d="M14.07 6.2c.01.15.06.3.13.43.26.44.74.7 1.21.89 1.18.48 2.44.68 3.66.98 1.23.31 2.47.73 3.43 1.55.97.82 1.6 2.12 1.32 3.34-.42 1.84.81 1.74 1.04.13l.03-.28c.09-1.55-.21-3.06-1.13-4.35a6.492 6.492 0 0 0-4.68-2.66c-.98-.08-2.01.05-2.89-.39-.55-.28-1.14-.78-1.69-.53-.32.15-.46.53-.43.89z"/><path class="fil4" d="M14.07 6.2c.34-.08.7-.01 1.05.06l3.55.72c1.23.25 2.48.51 3.55 1.16 1.22.75 2.05 2.04 2.35 3.42.07.32.11 1.56.29 1.96l.03-.28c.09-1.55-.21-3.06-1.13-4.35a6.492 6.492 0 0 0-4.68-2.66c-.98-.08-2.01.05-2.89-.39-.55-.28-1.14-.78-1.69-.53-.32.15-.46.53-.43.89z"/><path class="fil5" d="M17.97 6.29c-.01.02-.01.04-.01.06-.03.75.25 1.48.77 2.02.11.12.29.12.4.01.11-.11.12-.29.01-.4-.4-.42-.63-1.02-.61-1.61 0-.15-.12-.29-.28-.29a.28.28 0 0 0-.28.21z"/><path class="fil5" d="M17.4 7.94c-.03.1 0 .2.09.27.11.09.28.07.37-.04.46-.57 1.04-1.05 1.7-1.38.13-.06.18-.22.12-.35-.07-.13-.23-.19-.36-.12-.72.36-1.37.89-1.87 1.52-.03.03-.05.06-.05.1z"/><path class="fil3" d="M46.87 15.64c-.12.08-.26.15-.41.17-.5.09-1.01-.11-1.47-.35-1.11-.59-2.08-1.42-3.1-2.17-1.03-.74-2.15-1.42-3.39-1.63-1.25-.21-2.66.14-3.41 1.14-1.14 1.51-1.85.51-.77-.7.06-.07.13-.14.2-.21 1.12-1.07 2.48-1.81 4.06-1.94a6.55 6.55 0 0 1 5.05 1.87c.69.7 1.25 1.57 2.15 1.96.57.25 1.33.37 1.49.96.1.34-.1.69-.4.9z"/><path class="fil4" d="M46.87 15.64c-.16-.31-.45-.55-.72-.77-.95-.75-1.89-1.5-2.84-2.25-.98-.78-1.98-1.58-3.17-1.97-1.36-.45-2.88-.25-4.13.4-.29.16-1.27.92-1.69 1.05.06-.07.13-.14.2-.21 1.12-1.07 2.48-1.81 4.06-1.94a6.55 6.55 0 0 1 5.05 1.87c.69.7 1.25 1.57 2.15 1.96.57.25 1.33.37 1.49.96.1.34-.1.69-.4.9z"/><path class="fil5" d="M44.29 12.72c-.01.01-.02.03-.04.04-.55.5-1.3.76-2.04.71a.282.282 0 0 1-.27-.3c.01-.16.15-.28.3-.27.59.04 1.2-.17 1.63-.56.12-.11.3-.1.4.02.09.1.1.25.02.36z"/><path class="fil5" d="M43.4 14.21c-.06.08-.16.13-.27.11a.262.262 0 0 1-.2-.31c.14-.72.13-1.48-.04-2.19-.04-.14.05-.29.19-.32.14-.03.29.05.32.2.19.78.2 1.62.04 2.41 0 .04-.02.07-.04.1z"/><path class="fil3" d="M53.42 44.25c-.91.49-2.08-.27-2.45-1.23-.03-.07-.05-.14-.07-.21-.25-.91.08-1.93-.1-2.87-1.09-5.88-5.41-14.62-11.19-14.39-1.03.04-4.01-.7-3.46-2.43.4-1.27 3.1-1 4.06-.89.18.02.35.05.52.07 3.46.57 6.56 2.84 8.57 5.64 2.76 3.85 3.87 8.6 4.81 13.23.23 1.11.3 2.55-.69 3.08z"/><path class="fil4" d="M53.42 44.25c-.91.49-2.08-.27-2.45-1.23-.03-.07-.05-.14-.07-.21.46-.89 1.08-1.72 1.35-2.69.34-1.19.14-2.47-.16-3.66a21.43 21.43 0 0 0-1.65-4.38 22.601 22.601 0 0 0-5.16-6.69c-1.05-.92-2.19-1.76-3.4-2.46-.27-.16-.83-.34-1.15-.63 3.46.57 6.56 2.84 8.57 5.64 2.76 3.85 3.87 8.6 4.81 13.23.23 1.11.3 2.55-.69 3.08z"/><path class="fil5" d="M46.86 30.42c-.11 0-.22-.05-.3-.14a.405.405 0 0 1 .04-.56c.9-.77 1.27-2.1.89-3.22a.4.4 0 0 1 .76-.25c.47 1.42.01 3.09-1.13 4.07a.4.4 0 0 1-.26.1z"/><path class="fil5" d="M47.09 28.84c-.71 0-1.43-.08-2.13-.25a.4.4 0 0 1-.29-.48.4.4 0 0 1 .48-.3c1.31.32 2.69.31 4-.02.21-.06.43.07.48.28.06.21-.07.43-.28.49-.74.18-1.5.28-2.26.28z"/><path class="fil6" d="M50.98 34.99c-.55.21-1.11.36-1.69.45-.18.02-.35-.1-.37-.28-.03-.18.1-.34.27-.37a6.82 6.82 0 0 0 3.03-1.22c.14-.11.34-.08.45.07.1.14.07.35-.07.45-.5.37-1.05.67-1.62.9z"/><path class="fil5" d="M51.47 36.2c-.54.21-1.11.37-1.69.45-.18.02-.34-.1-.36-.28a.31.31 0 0 1 .27-.36c1.09-.16 2.13-.58 3.02-1.23.15-.11.35-.07.46.07.1.14.07.35-.08.45-.5.37-1.04.67-1.62.9z"/><path class="fil3" d="M50.27 26.31c.13.83.21 1.72-.15 2.49-.35.77-1.28 1.32-2.06.99-.61-.26-.86-.89-.98-1.58-.06-.35-.09-.72-.11-1.06-.21-3.79-1.87-7.44-4.46-10.19-1.29-1.38-2.59-2.29-4.29-2.94-1.08-.42-1.47-1.54-.77-2.09.23-.19.58-.31 1.06-.33.73-.03 1.42.31 2.06.68 5.08 2.94 8.74 8.23 9.7 14.03z"/><path class="fil4" d="M50.27 26.31c.13.83.21 1.72-.15 2.49-.35.77-1.28 1.32-2.06.99-.61-.26-.86-.89-.98-1.58.18-.18.39-.35.62-.48.33-.17.69-.29.98-.53.92-.73.7-2.18.29-3.3-1.69-4.66-5.13-8.65-9.45-11.08-.53-.3-1.37-.57-2.07-.89.23-.19.58-.31 1.06-.33.73-.03 1.42.31 2.06.68 5.08 2.94 8.74 8.23 9.7 14.03z"/><path class="fil7" d="M29.18 52.25c-2.47.31-5.01-.3-7.18-1.54.3-2.88.48-6.37.48-6.37l9.75.65s-.34 3.1-.25 6c-.79.73-1.9 1.12-2.8 1.26z"/><path class="fil8" d="M21.24 54.94c.22-.57.61-2.68.76-4.23.9.51 1.86.92 2.86 1.2 1.3.36 2.66.5 4 .38.11-.01.22-.03.32-.04.9-.14 2.01-.53 2.8-1.27.04 1.43.49 4.17.82 4.31-4.01.52-7.59.68-11.56-.35z"/><path class="fil9" d="M26.16 14.94c-.28 3.31-3.87 1.62-5.05-.1-.65-.96-1.25-2.03-2.25-2.63-1.63-.98-3.83-.36-5.2.95s-2.08 3.15-2.69 4.94c-.62 1.79-1.19 3.65-2.38 5.12-.66.81-1.9 1.87-3 2.35-.89.39-1.68.4-1.98-.39-.78-1.97 2.27-3.58 3.47-5.34l3.99-5.88c.99-1.44 2.01-2.93 3.44-3.94 1.91-1.36 4.49-1.73 6.71-.96.78.27 1.69.81 2.53 1.5 1.39 1.18 2.55 2.8 2.41 4.38z"/><path class="fil3" d="M23.75 10.56c-.05.29-.13.57-.25.84.19-.8-2.29-1.96-2.73-2.11-1.27-.43-2.69-.41-3.93.09-1.93.79-3.25 2.55-4.47 4.24-2.39 3.29-4.78 6.57-7.17 9.86-.39.54-.77 1.33-.3 1.8.18.18.43.25.69.29-.89.39-1.68.4-1.98-.39-.78-1.97 2.27-3.58 3.47-5.34l3.99-5.88c.99-1.44 2.01-2.93 3.44-3.94 1.91-1.36 4.49-1.73 6.71-.96.78.27 1.69.81 2.53 1.5z"/><path class="fil9" d="M5.62 33.58c-.86 2.6-1.47 5.61-.01 7.92 1.43 2.28 4.38 3.07 7.07 3.14 2.69.07 5.43-.36 8.04.28 1.93.48 3.74 1.53 5.72 1.51 2.21-.03 4.2-1.39 6.4-1.61 3.13-.3 6.34 1.75 9.31.7 1.56-.54 2.74-1.9 3.39-3.42.66-1.52.83-3.2.86-4.85.1-6.12-1.77-12.26-5.27-17.28-1.18-1.7-2.61-3.33-4.5-4.18-3.35-1.52-7.35-.3-10.9-1.29-2.38-.66-4.43-2.29-6.85-2.81-3.57-.76-7.49 1.4-8.87 4.75-1.33 3.22.35 6.3-1.2 9.48-1.22 2.5-2.32 5.02-3.19 7.66z"/><path class="fil10" d="M15.7 37.71c-1.75-.28-2.95-1.67-3.56-2.82-.14-.26-.25-.5-.33-.72-.44-1.18-.35-5.18 1-6.04.94-.59 1.54.39 1.82 1.03.11.27.17.49.17.49l.9 8.06z"/><path class="fil8" d="M15.7 37.71c-1.75-.28-2.95-1.67-3.56-2.82-.06-.11-.1-.22-.14-.33-.43-1.18-.34-5.18 1-6.04.76-.48 1.3.07 1.63.64.11.27.17.49.17.49l.9 8.06z"/><path class="fil7" d="M12.22 31.28c-.09.32-.07.65 0 .97.27 1.37 1.27 2.45 2.22 3.46-.27-.67-.33-1.41-.23-2.12.04-.25.09-.49.11-.74.07-1.01-1.61-3.43-2.1-1.57z"/><path class="fil11" d="M14.93 36.12s-.02-.01-.06-.04c-.03-.03-.09-.07-.15-.14-.13-.12-.31-.31-.47-.6a2.81 2.81 0 0 1-.14-2.49c.03-.06.06-.11.09-.17l.02-.04v-.01.01-.01l-.01-.04-.03-.08c-.02-.05-.04-.1-.07-.15-.08-.2-.17-.4-.27-.57-.09-.18-.19-.34-.29-.5-.11-.14-.2-.29-.3-.39a.594.594 0 0 0-.32-.2.375.375 0 0 0-.41.17c-.02.04-.02.07-.02.07s-.01-.02 0-.07.05-.12.12-.18c.07-.06.18-.11.33-.11.14.01.29.08.42.19.13.1.25.23.37.38.12.14.25.3.36.48.12.18.23.38.33.59.02.05.05.1.07.16l.03.08.05.12.03.08c-.01.03-.03.05-.04.08l-.06.11c-.02.05-.05.1-.07.15-.18.41-.24.84-.24 1.23.02.4.1.75.21 1.04.11.28.25.5.35.64.05.07.09.12.12.16l.05.05z"/><path class="fil10" d="M35.97 38.9c1.76-.08 3.12-1.32 3.86-2.39.17-.24.31-.47.41-.68.57-1.12.95-5.11-.29-6.11-.86-.7-1.57.2-1.92.81-.15.26-.23.46-.23.46l-1.83 7.91z"/><path class="fil8" d="M35.97 38.9c1.76-.08 3.12-1.32 3.86-2.39.07-.11.13-.21.18-.31.57-1.12.94-5.11-.29-6.12-.7-.57-1.3-.08-1.69.45-.15.26-.23.46-.23.46l-1.83 7.91z"/><path class="fil7" d="M40.18 32.92c.04.32-.02.65-.12.96-.43 1.32-1.55 2.28-2.61 3.18.34-.64.5-1.36.48-2.08-.01-.25-.04-.5-.03-.75.06-1.01 2-3.22 2.28-1.31z"/><path class="fil11" d="M36.92 37.41s.02-.02.06-.04c.04-.03.1-.06.17-.11.14-.11.34-.28.53-.55.19-.26.37-.61.47-1.04a2.717 2.717 0 0 0-.1-1.59l-.02-.05c-.01-.01 0 0 0 0h-.01l.01-.01.02-.04.03-.07c.03-.05.06-.1.08-.15.11-.19.22-.37.34-.53.12-.17.24-.32.35-.46.12-.13.23-.26.34-.35.12-.1.23-.16.34-.17.11-.01.21.03.28.08.06.04.1.1.11.15.02.04.01.06.02.06-.01 0 0-.02 0-.07-.01-.04-.03-.12-.1-.19a.5.5 0 0 0-.31-.14c-.14-.01-.3.04-.44.13s-.28.21-.41.33c-.14.13-.28.28-.42.44-.14.17-.27.35-.39.55l-.09.15-.05.08-.05.11-.04.08c0 .02.02.05.03.08l.04.11c.02.06.04.11.06.16.13.43.14.87.09 1.26-.06.39-.19.73-.33 1s-.3.46-.42.59c-.06.07-.11.11-.14.15l-.05.05z"/><path class="fil10" d="M37.92 30.27s-.77 7.75-3 10.51c-1.86 2.31-4.54 6.01-8.53 7.1-.78.21-1.61.16-2.36-.14-3.84-1.54-6.06-5.53-7.65-8.04-1.89-3.01-1.75-10.79-1.75-10.79.01-.52.04-1.02.07-1.5v-.02c1.1-14.69 12.48-13.22 12.48-13.22s11.25.76 10.78 15.33c-.01.26-.02.51-.04.77z"/><path class="fil8" d="M37.96 29.5c-.14 1.24-.97 7.82-2.98 10.31-1.87 2.32-4.54 6.02-8.53 7.1-.78.21-1.62.16-2.37-.14-3.83-1.54-6.06-5.53-7.64-8.04-1.89-3-1.76-10.79-1.76-10.79.01-.18.01-.36.02-.53v-.02c1.1-14.69 12.48-13.22 12.48-13.22s11.25.76 10.78 15.33z"/><path d="M29.63 39.72c-.18.48-1.46 3.6-4.81 3.03-3.18-.54-3.21-3.63-3.17-4.39l7.98 1.36z" style="fill:#fff;fill-rule:nonzero"/><path class="fil13" d="M22.18 31.52c-.2-1.2-1.12-2.24-2.27-2.57-1.16-.34-2.49.06-3.29.96 0 0 2.17-.44 3.32.08s2.24 1.53 2.24 1.53zM29.13 31.97c.35-1.16 1.4-2.07 2.58-2.26 1.19-.18 2.47.38 3.14 1.39 0 0-2.09-.72-3.3-.36-1.21.37-2.42 1.23-2.42 1.23z"/><path class="fil7" d="M25.44 35.83c.59.06 1.13.46 1.34 1.01.03.07.05.14.03.21-.04.1-.16.15-.27.17-.75.17-1.54.18-2.3.03-1.37-.28.52-1.48 1.2-1.42z"/><path d="M24.65 36.92s0-.08.02-.23c.01-.07.03-.16.04-.27.01-.1.03-.22.04-.34.01-.13.03-.27.04-.42.01-.15.02-.31.04-.47.02-.33.04-.7.06-1.07l.03-1.08c-.01-.16 0-.32-.01-.47.01-.15 0-.29 0-.42s-.01-.24-.01-.35c-.01-.1-.01-.19-.02-.27 0-.14-.01-.23-.01-.23s.05.07.12.2c.04.07.08.15.13.25.04.09.09.2.14.33.05.12.1.26.14.42.05.15.08.31.12.49.06.35.1.74.08 1.15-.01.42-.08.81-.18 1.15-.05.17-.09.33-.15.48-.06.15-.12.29-.18.41-.05.12-.12.22-.17.32-.05.09-.1.17-.14.23-.09.12-.13.19-.13.19z" style="fill:#dd5b67;fill-rule:nonzero"/><path class="fil9" d="M36.31 37s.04-.17.12-.48c.02-.08.04-.16.06-.25.03-.1.05-.2.08-.31.05-.21.11-.45.17-.73.03-.13.06-.27.09-.42.04-.15.07-.3.1-.46.07-.32.13-.66.2-1.01.13-.71.27-1.49.4-2.3.12-.82.22-1.6.31-2.32.04-.36.09-.71.11-1.03.02-.16.04-.32.05-.47l.03-.43c.03-.28.04-.53.06-.76.01-.11.02-.21.02-.31.01-.1.01-.18.02-.26.01-.32.03-.5.03-.5s.05.16.13.47c.02.08.05.16.07.25.02.1.04.2.07.31.04.22.1.47.14.75.02.15.04.29.07.45.02.15.03.32.05.48.03.34.05.7.06 1.09.01.76-.03 1.61-.16 2.48-.14.87-.35 1.69-.59 2.4-.13.36-.25.7-.38 1-.07.15-.13.3-.19.44-.07.14-.14.27-.2.39-.12.26-.25.47-.36.66-.05.1-.1.19-.15.26-.05.08-.1.15-.14.22-.17.25-.27.39-.27.39zM15.66 38.14s-.06-.15-.17-.44a20.041 20.041 0 0 1-.87-3.16c-.15-.73-.27-1.54-.34-2.4-.06-.86-.07-1.69-.05-2.44.02-.75.08-1.42.15-1.99.07-.56.14-1.02.2-1.33.06-.31.1-.49.1-.49s.03.18.07.49l.17 1.32c.06.55.14 1.21.22 1.94.07.72.15 1.52.22 2.35.06.84.12 1.64.15 2.37.05.73.07 1.39.1 1.95.02.56.03 1.02.04 1.34.01.32.01.49.01.49z"/><path class="fil7" d="M19.42 35.29c-.22.5-1.62.36-3.12-.3-1.5-.67-2.54-1.61-2.32-2.11.22-.5 1.62-.36 3.12.3 1.5.67 2.54 1.61 2.32 2.11zM38.12 34.19c.18.52-.93 1.37-2.48 1.92-1.55.54-2.96.56-3.14.05-.18-.52.93-1.38 2.48-1.92 1.56-.54 2.96-.56 3.14-.05z"/><path class="fil3" d="M15.67 25.37s5.46-3.23 7.16-1.77c1 .85.11 1.29.11 1.29l-7.27.48zM36.93 26.43s-5.11-3.76-6.95-2.48c-1.07.74-.23 1.28-.23 1.28l7.18 1.2z"/><path class="fil3" d="M24.08 15.21c-.84.43-1.83.41-2.78.38-.94-.03-1.93-.05-2.78.36-.94.46-1.55 1.36-2.12 2.24l-6.25 9.55c-1.18 1.81-2.37 3.63-3.05 5.68-.68 2.04-.8 4.36.15 6.29.42.86 1.03 1.61 1.39 2.49.09.22.17.46.22.7.14.71.07 1.46-.38 2-.59.72-1.67.86-2.53.53-.87-.33-1.53-1.04-2.03-1.82-1.75-2.68-1.88-6.18-1.02-9.27.85-3.09 2.59-5.85 4.38-8.51s3.69-5.28 4.92-8.24c.78-1.87 1.31-3.9 2.62-5.44.84-.99 1.99-1.71 3.24-2.07.72-.22 1.46-.3 2.2-.26 2.1.11 7.83 3.39 3.82 5.39z"/><path class="fil4" d="m18.06 10.08-.03.03c-1.13 1.18-2.15 1.93-2.84 3.5-.66 1.53-1.01 3.19-1.6 4.76-1.32 3.5-3.81 6.42-6.03 9.44-2.22 3.02-4.26 6.4-4.44 10.15-.05.98.04 1.99.46 2.88.41.89 1.19 1.65 2.15 1.85.65.14 1.31.02 1.97.02.39 0 .81.05 1.16.19.14.71.07 1.46-.38 2-.59.72-1.67.86-2.53.53-.87-.33-1.53-1.04-2.03-1.82-1.75-2.68-1.88-6.18-1.02-9.27.85-3.09 2.59-5.85 4.38-8.51s3.69-5.28 4.92-8.24c.78-1.87 1.31-3.9 2.62-5.44.84-.99 1.99-1.71 3.24-2.07z"/><path class="fil5" d="M11.81 23.1c-.65-.66-1.1-1.55-1.22-2.47-.03-.26.15-.51.42-.54.26-.03.5.15.53.42.13 1 .75 1.93 1.62 2.44.23.14.31.43.18.66-.14.23-.43.31-.66.17-.32-.18-.61-.41-.87-.68z"/><path class="fil5" d="M9.8 22.76a.439.439 0 0 1-.13-.35c.01-.27.23-.47.49-.46 1.19.04 2.39-.29 3.39-.93.22-.14.52-.07.66.15s.08.52-.15.66a6.83 6.83 0 0 1-3.93 1.08.507.507 0 0 1-.33-.15z"/><path class="fil3" d="M47.8 46.76c-1.76 1-3.14-.74-4.17-3.11-.86-1.93-1.48-4.26-1.92-5.85-1.21-4.41-.58-9.1-1.2-13.63-.77-5.61-3.57-9-8.87-10.45-1.14-.31-1.99.15-1.65-1.26.26-1.13 1.77-1.35 2.66-1.48.17-.02.34-.04.51-.05 2.44-.17 5.18.93 7 2.45 4.13 3.46 5.01 9.37 5.59 14.73.68 6.22 7.49 15.56 2.05 18.65z"/><path class="fil4" d="M47.8 46.76c-1.76 1-3.14-.74-4.17-3.11.05-.02.11-.03.17-.05 1.09-.19 2.29.76 3.27.21.92-.51.81-1.84.56-2.87-1.38-5.85-2.76-11.69-4.14-17.55-.66-2.76-1.35-5.6-3.03-7.88-1.32-1.81-3.22-3.13-5.33-3.83-.5-.16-1.47-.31-1.97-.75 2.44-.17 5.18.93 7 2.45 4.13 3.46 5.01 9.37 5.59 14.73.68 6.22 7.49 15.56 2.05 18.65z"/><path class="fil5" d="M39.95 21.07c-.17-.01-.35-.03-.52-.07-.3-.07-.5-.37-.43-.68.07-.31.37-.5.67-.43.61.13 1.3 0 1.83-.35s.93-.93 1.06-1.56c.06-.31.36-.51.66-.45.3.07.5.37.43.68a3.63 3.63 0 0 1-1.54 2.29c-.64.42-1.4.62-2.16.57zM41.17 23.1a3.19 3.19 0 0 1-.76-.14.536.536 0 0 1-.35-.67.53.53 0 0 1 .67-.34c.58.19 1.24.11 1.77-.21.52-.32.9-.87 1.01-1.47a.53.53 0 0 1 .61-.43c.29.06.48.33.43.62-.16.9-.72 1.72-1.5 2.19-.56.33-1.23.49-1.88.45z"/><path class="fil6" d="M43.74 42.41c-.41-.09-.81-.22-1.19-.4a.857.857 0 0 1-.4-1.15c.2-.42.72-.6 1.14-.4.9.43 1.98.45 2.89.06.92-.39 1.65-1.18 1.95-2.13.15-.45.64-.69 1.09-.55.45.15.69.63.54 1.08a5.273 5.273 0 0 1-2.9 3.18c-.98.42-2.08.52-3.12.31z"/><path class="fil3" d="M46.48 44.49c-.18.99-.99 1.94-1.99 1.93-.8-.01-1.5-.62-1.84-1.34-.07-.15-.14-.31-.19-.47-.19-.6-.24-1.24-.29-1.86-.11-1.45-.22-2.91-.34-4.36-.13-1.69-.26-3.38-.55-5.04-.38-2.15-1.02-4.23-1.65-6.32-.86-2.81-1.72-5.62-2.58-8.44-.47-1.55-1.57-5.08.71-5.12.09 0 .19 0 .28.01 2.1.19 3.61 2.85 4 4.66.52 2.42.09 4.94.16 7.42.09 2.99.94 5.91 1.79 8.79.7 2.4 1.4 4.79 2.1 7.18.28.97.57 1.97.39 2.96z"/><path class="fil4" d="M46.48 44.49c-.18.99-.99 1.94-1.99 1.93-.8-.01-1.5-.62-1.84-1.34-.07-.15-.14-.31-.19-.47.13-.13.28-.24.45-.31.5-.23 1.11-.19 1.58-.48.87-.54.8-1.81.58-2.81-1.31-6.03-4.14-11.8-4.2-17.96-.01-1.86.23-3.75-.14-5.57-.41-2-1.46-2.79-2.91-3.96-.02-.02-.04-.03-.06-.05.09 0 .19 0 .28.01 2.1.19 3.61 2.85 4 4.66.52 2.42.09 4.94.16 7.42.09 2.99.94 5.91 1.79 8.79.7 2.4 1.4 4.79 2.1 7.18.28.97.57 1.97.39 2.96z"/><path class="fil6" d="M43.51 33.3c-.68.42-1.56.53-2.31.26a.324.324 0 0 1-.21-.42.33.33 0 0 1 .42-.2c.64.22 1.41.09 1.94-.33.14-.11.35-.09.46.06.11.14.09.35-.05.46-.08.06-.17.12-.25.17zM43.17 32.38c-.29.18-.61.29-.95.32-.54.06-1.11-.1-1.55-.43-.14-.1-.17-.31-.06-.46.1-.14.31-.17.46-.06.31.22.7.33 1.09.3.38-.04.75-.23 1-.51.13-.14.34-.15.47-.03.14.13.15.33.02.47-.14.16-.3.29-.48.4z"/><path class="fil3" d="M38.17 44.09c-.5.86-.8 1.93-1.66 2.42-.84.48-2.14.2-2.41-.69l-.03-.12c1.77-3.75 3.56-7.57 4.12-11.68.53-3.86-.13-7.86-1.78-11.38-.87-1.85-2.09-3.28-3.26-4.93-.55-.78-1.09-.93-.36-1.79.48-.57 1.64-.65 2.28-.39.44.18.81.45 1.13.79.64.65 1.08 1.53 1.43 2.39 3.34 7.99 6.87 14.33.54 25.38z"/><path class="fil4" d="M38.17 44.09c-.5.86-.8 1.93-1.66 2.42-.84.48-2.14.2-2.41-.69.07-.11.14-.22.22-.32.44-.55 1.03-.96 1.57-1.41 2.73-2.28 4.29-5.78 4.64-9.32.35-3.54-.44-7.13-1.77-10.43-.76-1.86-1.7-3.66-2.22-5.61-.18-.67-.45-1.69-.34-2.41.64.65 1.08 1.53 1.43 2.39 3.34 7.99 6.87 14.33.54 25.38z"/><path class="fil5" d="M38.62 43.07c-1.16-.07-2.29-.68-2.97-1.62a.473.473 0 0 1 .11-.67c.21-.15.51-.1.67.11.58.8 1.59 1.28 2.57 1.23.27-.02.5.18.51.45.02.26-.19.49-.45.51-.15 0-.29 0-.44-.01z"/><path class="fil5" d="M38.99 41.69a3.248 3.248 0 0 1-2.89-2.21.48.48 0 0 1 .31-.6c.25-.09.52.05.6.3.18.53.56.99 1.05 1.27.49.27 1.08.36 1.63.24.26-.06.51.1.57.36.06.26-.1.51-.36.57-.3.07-.61.09-.91.07zM39.88 27.64c-.94-.06-1.86-.42-2.57-1.03a.479.479 0 1 1 .63-.72c.76.66 1.85.94 2.84.74.26-.06.52.11.57.37.05.26-.11.51-.37.56-.36.08-.73.1-1.1.08z"/><path class="fil5" d="M38.15 28.73a.486.486 0 0 1-.33-.17.478.478 0 0 1 .06-.68c.91-.76 1.58-1.8 1.9-2.94a.477.477 0 1 1 .92.25 6.825 6.825 0 0 1-2.21 3.43.48.48 0 0 1-.34.11z"/><path class="fil9" d="M21.16 17.67c-1.41 1.44-2.84 2.66-3.99 4.36-2.17 3.22-3.46 7.06-3.54 10.96-.08 3.77.88 7.47 1.94 11.11l.3 1.07c-.33.94-1.75 1.05-2.53.42-.78-.63-.9-1.72-1.26-2.66-4.53-11.89-.05-17.61 4.5-24.98.62-1.02 1.4-2.07 2.47-2.55.18-.08.36-.14.56-.19.66-.15 1.8.1 2.19.74.59.97.03 1.04-.64 1.72z"/><path class="fil4" d="M11.72 30.73c-.86 3.3-.92 6.93.53 10.01.54 1.13 1.31 2.21 2.4 2.82.31.17.65.31.92.54l.3 1.07c-.33.94-1.75 1.05-2.53.42-.78-.63-.9-1.72-1.26-2.66-4.53-11.89-.05-17.61 4.5-24.98.62-1.02 1.4-2.07 2.47-2.55-.09.29-.31.54-.5.84-1.04 1.63-1.86 3.42-2.76 5.13-1.6 3.01-3.21 6.06-4.07 9.36z"/><path class="fil5" d="M13.44 33.66c-1.07.45-2.35.41-3.38-.14a.486.486 0 0 1-.2-.65c.13-.23.42-.32.65-.2.88.47 2 .45 2.86-.04a.476.476 0 1 1 .47.83c-.13.08-.26.14-.4.2z"/><path class="fil6" d="M13.61 32.16a3.234 3.234 0 0 1-3.54-.81.474.474 0 0 1 .02-.67c.19-.19.5-.18.68.02.38.41.92.67 1.48.72.55.04 1.13-.13 1.57-.47.22-.16.52-.12.68.09.16.21.12.51-.09.67-.25.19-.52.34-.8.45zM13.76 41.92c-.94-.05-1.86-.41-2.57-1.02a.487.487 0 0 1-.05-.68c.18-.2.48-.22.68-.05.76.66 1.85.94 2.84.74.26-.05.51.11.57.37a.49.49 0 0 1-.37.57c-.36.07-.74.1-1.1.07z"/><path class="fil6" d="M12.03 43.01a.487.487 0 0 1-.34-.17c-.16-.2-.14-.5.07-.67a5.98 5.98 0 0 0 1.9-2.95c.07-.26.33-.41.58-.34.26.07.41.34.34.59a6.891 6.891 0 0 1-2.21 3.43.48.48 0 0 1-.34.11z"/><path class="fil9" d="M31.77 18.41c1.1-.33 1.99-1.13 2.84-1.91 1.2-1.09 2.39-2.17 3.58-3.26.32-.3.67-.64.69-1.09.04-.69-.75-1.12-1.42-1.28-2.06-.48-4.32-.01-6.01 1.25a7.32 7.32 0 0 0-2.78 4.29c-.39 1.77 1.61 2.46 3.1 2z"/><path class="fil3" d="M28.98 17.74c.91-.67 1.42-1.75 1.95-2.76.52-1.01 1.16-2.05 2.19-2.53.54-.25 1.15-.33 1.69-.58.55-.26 1.04-.79.95-1.38-.06-.44-.45-.79-.87-.93-.43-.14-.89-.11-1.34-.06-3.63.45-7 2.63-8.9 5.76-1.65 2.72 2.54 3.79 4.33 2.48z"/><path class="fil9" d="M23.51 10.82a8.236 8.236 0 0 1 6.28-3.18c.55-.01 1.11.03 1.6.28s.88.74.88 1.29c0 .52-.34.99-.76 1.31-.41.31-.91.51-1.36.76-.91.5-1.69 1.24-2.25 2.12-.51.81-.83 1.72-1.26 2.58-.43.86-1.02 1.69-1.87 2.12-4.47 2.27-2.51-5.64-1.26-7.28z"/><path class="fil3" d="M21.21 11.55c1.51-1.91 3.82-3.95 6.2-3.49 1.01.36.21 2.34-.28 2.73-.5.38-1.13.54-1.73.7-.61.16-1.24.35-1.69.78-.65.61-.82 1.57-.88 2.46-.05.89-.05 1.83-.48 2.61-1.14 2.11-2.39.59-2.53-1-.16-1.7.33-3.46 1.39-4.79z"/></g></g></svg>